<svg width="46" height="60" viewBox="0 0 46 60" fill="none" xmlns="http://www.w3.org/2000/svg">
<rect x="0.905605" y="0.905605" width="43.469" height="43.469" rx="21.7345" stroke="#FCC436" stroke-width="1.81121"/>
<path d="M15.2223 51.0764C15.6153 51.0764 15.9528 51.1304 16.2348 51.2384C16.5198 51.3434 16.7388 51.5129 16.8918 51.7469C17.0448 51.9779 17.1213 52.2779 17.1213 52.6469C17.1213 52.9919 17.0493 53.2799 16.9053 53.5109C16.7643 53.7419 16.5813 53.9159 16.3563 54.0329C16.1343 54.1499 15.9003 54.2129 15.6543 54.2219C15.9243 54.2279 16.1808 54.2879 16.4238 54.4019C16.6698 54.5129 16.8708 54.6899 17.0268 54.9329C17.1828 55.1729 17.2608 55.4924 17.2608 55.8914C17.2608 56.2874 17.1813 56.6219 17.0223 56.8949C16.8633 57.1649 16.6293 57.3689 16.3203 57.5069C16.0143 57.6449 15.6333 57.7139 15.1773 57.7139H13.1568V51.0764H15.2223ZM13.7013 54.1904L13.5078 53.9969H14.8848C15.4068 53.9969 15.8163 53.8934 16.1133 53.6864C16.4103 53.4764 16.5588 53.1554 16.5588 52.7234C16.5588 52.4324 16.4973 52.2029 16.3743 52.0349C16.2513 51.8669 16.0788 51.7469 15.8568 51.6749C15.6378 51.6029 15.3843 51.5669 15.0963 51.5669H13.4493L13.7013 51.2564V54.1904ZM15.0738 57.2234C15.5658 57.2234 15.9573 57.1139 16.2483 56.8949C16.5423 56.6759 16.6893 56.3324 16.6893 55.8644C16.6893 55.5854 16.6398 55.3574 16.5408 55.1804C16.4448 55.0004 16.3128 54.8609 16.1448 54.7619C15.9768 54.6599 15.7863 54.5894 15.5733 54.5504C15.3603 54.5084 15.1398 54.4874 14.9118 54.4874H13.5078L13.7013 54.2984V57.5339L13.4493 57.2234H15.0738ZM18.7423 55.5584V55.0589H22.6123L22.5043 55.2119C22.5043 55.1939 22.5043 55.1789 22.5043 55.1669C22.5043 55.1519 22.5043 55.1369 22.5043 55.1219C22.5043 54.8129 22.4383 54.5249 22.3063 54.2579C22.1743 53.9909 21.9823 53.7764 21.7303 53.6144C21.4813 53.4524 21.1768 53.3714 20.8168 53.3714C20.4508 53.3714 20.1283 53.4554 19.8493 53.6234C19.5703 53.7884 19.3528 54.0179 19.1968 54.3119C19.0408 54.6029 18.9628 54.9419 18.9628 55.3289C18.9628 55.7189 19.0393 56.0624 19.1923 56.3594C19.3483 56.6534 19.5658 56.8829 19.8448 57.0479C20.1238 57.2099 20.4493 57.2909 20.8213 57.2909C21.0943 57.2909 21.3313 57.2579 21.5323 57.1919C21.7363 57.1229 21.9043 57.0329 22.0363 56.9219C22.1713 56.8109 22.2733 56.6939 22.3423 56.5709C22.4143 56.4449 22.4563 56.3264 22.4683 56.2154H23.0218C23.0098 56.3924 22.9528 56.5739 22.8508 56.7599C22.7518 56.9429 22.6093 57.1139 22.4233 57.2729C22.2403 57.4319 22.0123 57.5609 21.7393 57.6599C21.4693 57.7559 21.1573 57.8039 20.8033 57.8039C20.3413 57.8039 19.9303 57.6989 19.5703 57.4889C19.2133 57.2789 18.9313 56.9894 18.7243 56.6204C18.5203 56.2484 18.4183 55.8209 18.4183 55.3379C18.4183 54.8519 18.5218 54.4244 18.7288 54.0554C18.9358 53.6834 19.2193 53.3924 19.5793 53.1824C19.9393 52.9724 20.3488 52.8674 20.8078 52.8674C21.2758 52.8674 21.6808 52.9739 22.0228 53.1869C22.3648 53.3999 22.6288 53.6894 22.8148 54.0554C23.0008 54.4184 23.0938 54.8264 23.0938 55.2794C23.0938 55.3184 23.0923 55.3679 23.0893 55.4279C23.0893 55.4879 23.0878 55.5314 23.0848 55.5584H18.7423ZM24.5167 55.5584V55.0589H28.3867L28.2787 55.2119C28.2787 55.1939 28.2787 55.1789 28.2787 55.1669C28.2787 55.1519 28.2787 55.1369 28.2787 55.1219C28.2787 54.8129 28.2127 54.5249 28.0807 54.2579C27.9487 53.9909 27.7567 53.7764 27.5047 53.6144C27.2557 53.4524 26.9512 53.3714 26.5912 53.3714C26.2252 53.3714 25.9027 53.4554 25.6237 53.6234C25.3447 53.7884 25.1272 54.0179 24.9712 54.3119C24.8152 54.6029 24.7372 54.9419 24.7372 55.3289C24.7372 55.7189 24.8137 56.0624 24.9667 56.3594C25.1227 56.6534 25.3402 56.8829 25.6192 57.0479C25.8982 57.2099 26.2237 57.2909 26.5957 57.2909C26.8687 57.2909 27.1057 57.2579 27.3067 57.1919C27.5107 57.1229 27.6787 57.0329 27.8107 56.9219C27.9457 56.8109 28.0477 56.6939 28.1167 56.5709C28.1887 56.4449 28.2307 56.3264 28.2427 56.2154H28.7962C28.7842 56.3924 28.7272 56.5739 28.6252 56.7599C28.5262 56.9429 28.3837 57.1139 28.1977 57.2729C28.0147 57.4319 27.7867 57.5609 27.5137 57.6599C27.2437 57.7559 26.9317 57.8039 26.5777 57.8039C26.1157 57.8039 25.7047 57.6989 25.3447 57.4889C24.9877 57.2789 24.7057 56.9894 24.4987 56.6204C24.2947 56.2484 24.1927 55.8209 24.1927 55.3379C24.1927 54.8519 24.2962 54.4244 24.5032 54.0554C24.7102 53.6834 24.9937 53.3924 25.3537 53.1824C25.7137 52.9724 26.1232 52.8674 26.5822 52.8674C27.0502 52.8674 27.4552 52.9739 27.7972 53.1869C28.1392 53.3999 28.4032 53.6894 28.5892 54.0554C28.7752 54.4184 28.8682 54.8264 28.8682 55.2794C28.8682 55.3184 28.8667 55.3679 28.8637 55.4279C28.8637 55.4879 28.8622 55.5314 28.8592 55.5584H24.5167ZM30.6393 57.7139V53.4254H29.5773V52.9349H30.6393V52.2734C30.6393 52.0934 30.6573 51.9209 30.6933 51.7559C30.7323 51.5909 30.7893 51.4394 30.8643 51.3014C30.9423 51.1604 31.0398 51.0389 31.1568 50.9369C31.2768 50.8349 31.4193 50.7554 31.5843 50.6984C31.7493 50.6414 31.9368 50.6129 32.1468 50.6129C32.2758 50.6129 32.3823 50.6219 32.4663 50.6399C32.5503 50.6549 32.6073 50.6699 32.6373 50.6849V51.1754C32.5983 51.1634 32.5383 51.1499 32.4573 51.1349C32.3763 51.1199 32.2893 51.1124 32.1963 51.1124C31.9833 51.1124 31.8108 51.1484 31.6788 51.2204C31.5468 51.2924 31.4448 51.3884 31.3728 51.5084C31.3038 51.6284 31.2573 51.7634 31.2333 51.9134C31.2093 52.0604 31.1973 52.2104 31.1973 52.3634V52.9349H32.6103V53.4254H31.1973V57.7139H30.6393Z" fill="#797D86"/>
<path d="M17.587 21.7288C17.587 21.7288 16.0942 21.6216 15.7116 21.239C15.329 20.8564 15.329 20.2361 15.7116 19.8535C16.0942 19.4709 16.7145 19.4709 17.0971 19.8535C17.4797 20.2361 17.587 21.7288 17.587 21.7288Z" fill="#FCC436"/>
<mask id="path-4-outside-1_13_135" maskUnits="userSpaceOnUse" x="9.13385" y="6.96164" width="27" height="16" fill="black">
<rect fill="white" x="9.13385" y="6.96164" width="27" height="16"/>
<path d="M14.3821 19.3657L15.3803 14.8356C15.3803 14.8356 11.6179 14.5284 12.1938 11.1884C12.1938 11.1884 17.0695 12.8009 18.4515 11.4188C18.4515 11.4188 21.507 8.1543 26.385 11.3977C28.0125 12.48 32.6427 11.1674 32.6427 11.1674C33.2186 14.5074 29.4562 14.8145 29.4562 14.8145L30.4544 19.3447"/>
</mask>
<path d="M11.7289 18.7811C11.4061 20.2464 12.3322 21.696 13.7975 22.0189C15.2628 22.3417 16.7124 21.4156 17.0353 19.9503L11.7289 18.7811ZM15.3803 14.8356L18.0335 15.4202C18.2023 14.654 18.0317 13.8523 17.5655 13.2213C17.0994 12.5903 16.3832 12.1916 15.6013 12.1278L15.3803 14.8356ZM12.1938 11.1884L13.0468 8.60901C12.2961 8.36072 11.4743 8.45186 10.7962 8.85866C10.1181 9.26546 9.65085 9.94753 9.51649 10.7268L12.1938 11.1884ZM18.4515 11.4188L20.3727 13.3398C20.3938 13.3186 20.4146 13.2971 20.4351 13.2753L18.4515 11.4188ZM26.385 11.3977L27.8893 9.13541L27.8892 9.13539L26.385 11.3977ZM32.6427 11.1674L35.32 10.7058C35.1891 9.94667 34.7421 9.27879 34.0902 8.86835C33.4384 8.45791 32.6429 8.3435 31.9017 8.5536L32.6427 11.1674ZM29.4562 14.8145L29.2352 12.1067C28.4533 12.1706 27.7371 12.5693 27.271 13.2003C26.8049 13.8313 26.6342 14.633 26.8031 15.3991L29.4562 14.8145ZM27.8012 19.9293C28.1241 21.3946 29.5737 22.3207 31.039 21.9979C32.5043 21.675 33.4304 20.2254 33.1076 18.7601L27.8012 19.9293ZM17.0353 19.9503L18.0335 15.4202L12.7271 14.251L11.7289 18.7811L17.0353 19.9503ZM15.3803 14.8356C15.6013 12.1278 15.6025 12.1279 15.6037 12.1279C15.604 12.128 15.6052 12.1281 15.6059 12.1281C15.6074 12.1283 15.6088 12.1284 15.6102 12.1285C15.6129 12.1287 15.6155 12.129 15.6178 12.1292C15.6225 12.1296 15.6265 12.1299 15.6296 12.1302C15.636 12.1309 15.6394 12.1312 15.64 12.1313C15.6412 12.1314 15.632 12.1304 15.6139 12.1278C15.5769 12.1223 15.5096 12.111 15.4244 12.091C15.2379 12.047 15.0519 11.9813 14.9148 11.9032C14.7823 11.8279 14.7982 11.8011 14.8341 11.867C14.8905 11.9703 14.8181 11.9577 14.8711 11.65L9.51649 10.7268C9.28161 12.0891 9.46356 13.3675 10.0633 14.4677C10.6428 15.5306 11.4913 16.2069 12.2274 16.6258C12.9589 17.042 13.6775 17.2618 14.1784 17.3798C14.437 17.4407 14.6591 17.4795 14.8255 17.5039C14.9093 17.5162 14.9803 17.525 15.0363 17.5313C15.0644 17.5344 15.0888 17.5369 15.1094 17.5389C15.1196 17.5399 15.129 17.5408 15.1373 17.5415C15.1414 17.5419 15.1453 17.5422 15.149 17.5425C15.1508 17.5427 15.1526 17.5428 15.1543 17.543C15.1552 17.543 15.1564 17.5431 15.1568 17.5432C15.158 17.5433 15.1592 17.5434 15.3803 14.8356ZM12.1938 11.1884C11.3408 13.7678 11.3412 13.768 11.3417 13.7681C11.3419 13.7682 11.3423 13.7684 11.3427 13.7685C11.3434 13.7687 11.3442 13.769 11.3451 13.7693C11.3469 13.7699 11.3489 13.7705 11.3513 13.7713C11.356 13.7728 11.3619 13.7748 11.3689 13.7771C11.383 13.7816 11.4018 13.7877 11.425 13.7951C11.4713 13.8098 11.5354 13.8299 11.6151 13.8542C11.7742 13.9026 11.9973 13.9681 12.2674 14.0412C12.8016 14.1858 13.5475 14.3676 14.3608 14.5022C15.1524 14.6333 16.1229 14.7395 17.0705 14.6767C17.9164 14.6206 19.3144 14.3981 20.3727 13.3398L16.5304 9.49771C16.8977 9.13047 17.1679 9.22469 16.711 9.25499C16.3556 9.27855 15.8481 9.24085 15.248 9.14154C14.6696 9.0458 14.1102 8.91087 13.6871 8.79633C13.4784 8.73987 13.3098 8.69024 13.1969 8.65588C13.1406 8.63874 13.0986 8.62553 13.0728 8.61733C13.0599 8.61324 13.0512 8.6104 13.0468 8.60897C13.0445 8.60825 13.0434 8.60788 13.0434 8.60789C13.0434 8.60789 13.0437 8.60798 13.0443 8.60817C13.0446 8.60826 13.0449 8.60838 13.0453 8.60852C13.0456 8.60859 13.0459 8.60871 13.046 8.60875C13.0464 8.60888 13.0468 8.60901 12.1938 11.1884ZM18.4515 11.4188C20.4351 13.2753 20.4339 13.2765 20.4328 13.2778C20.4324 13.2781 20.4312 13.2794 20.4305 13.2802C20.429 13.2817 20.4276 13.2833 20.4262 13.2847C20.4234 13.2877 20.4207 13.2905 20.4182 13.2931C20.4132 13.2984 20.4088 13.3029 20.405 13.3068C20.3974 13.3146 20.3923 13.3197 20.3894 13.3225C20.3838 13.328 20.3874 13.3242 20.3997 13.3133C20.4248 13.2909 20.4823 13.242 20.5693 13.1807C20.747 13.0557 21.0189 12.8991 21.3673 12.7949C21.9482 12.6212 23.0974 12.4744 24.8807 13.6601L27.8892 9.13539C24.7945 7.07767 21.977 6.94132 19.8108 7.58899C18.7856 7.89551 17.9887 8.35233 17.441 8.73798C17.1654 8.93207 16.9461 9.11286 16.785 9.25636C16.7043 9.32833 16.6374 9.39159 16.5847 9.44331C16.5583 9.46919 16.5353 9.49227 16.5159 9.51218C16.5062 9.52214 16.4973 9.53131 16.4894 9.53967C16.4854 9.54385 16.4816 9.54782 16.478 9.55158C16.4763 9.55346 16.4745 9.55529 16.4729 9.55706C16.472 9.55795 16.4708 9.55925 16.4704 9.55969C16.4692 9.56097 16.468 9.56223 18.4515 11.4188ZM24.8807 13.6601C25.914 14.3471 27.1168 14.4968 27.9301 14.5325C28.8253 14.5719 29.7393 14.4869 30.5054 14.3784C31.2856 14.2678 31.9955 14.1205 32.5053 14.0027C32.7624 13.9433 32.9741 13.8902 33.1248 13.8509C33.2003 13.8313 33.2609 13.815 33.3046 13.8031C33.3264 13.7972 33.3441 13.7923 33.3574 13.7886C33.364 13.7868 33.3695 13.7852 33.3739 13.784C33.3761 13.7834 33.378 13.7828 33.3797 13.7824C33.3805 13.7821 33.3812 13.7819 33.3819 13.7817C33.3822 13.7816 33.3827 13.7815 33.3828 13.7815C33.3833 13.7814 33.3837 13.7812 32.6427 11.1674C31.9017 8.5536 31.9021 8.55349 31.9025 8.55339C31.9026 8.55336 31.9029 8.55326 31.9031 8.55321C31.9035 8.5531 31.9038 8.55301 31.9041 8.55294C31.9046 8.55279 31.9048 8.55273 31.9048 8.55274C31.9047 8.55276 31.9036 8.55308 31.9014 8.55369C31.897 8.5549 31.8885 8.55726 31.876 8.56065C31.8511 8.56744 31.8106 8.57834 31.7563 8.59247C31.6475 8.62078 31.4847 8.66173 31.2824 8.70848C30.8731 8.803 30.3237 8.91618 29.743 8.99847C29.1481 9.08278 28.5994 9.12305 28.1687 9.10412C27.656 9.0816 27.6698 8.98945 27.8893 9.13541L24.8807 13.6601ZM29.9654 11.629C30.0184 11.9367 29.9461 11.9493 30.0024 11.846C30.0383 11.7801 30.0542 11.8068 29.9217 11.8822C29.7846 11.9602 29.5986 12.026 29.4121 12.07C29.3269 12.09 29.2596 12.1013 29.2226 12.1068C29.2045 12.1094 29.1953 12.1104 29.1965 12.1103C29.1971 12.1102 29.2005 12.1098 29.2069 12.1092C29.21 12.1089 29.214 12.1086 29.2187 12.1081C29.221 12.1079 29.2236 12.1077 29.2263 12.1075C29.2277 12.1074 29.2291 12.1072 29.2306 12.1071C29.2313 12.1071 29.2325 12.107 29.2329 12.1069C29.234 12.1068 29.2352 12.1067 29.4562 14.8145C29.6773 17.5224 29.6785 17.5223 29.6797 17.5222C29.6801 17.5221 29.6813 17.522 29.6822 17.5219C29.6839 17.5218 29.6857 17.5217 29.6875 17.5215C29.6912 17.5212 29.6951 17.5209 29.6992 17.5205C29.7075 17.5197 29.7169 17.5189 29.7271 17.5179C29.7477 17.5159 29.7721 17.5134 29.8002 17.5103C29.8562 17.504 29.9273 17.4952 30.011 17.4829C30.1774 17.4585 30.3996 17.4197 30.6581 17.3588C31.159 17.2408 31.8776 17.021 32.6091 16.6047C33.3453 16.1858 34.1937 15.5096 34.7732 14.4467C35.3729 13.3464 35.5549 12.0681 35.32 10.7058L29.9654 11.629ZM26.8031 15.3991L27.8012 19.9293L33.1076 18.7601L32.1094 14.2299L26.8031 15.3991Z" fill="#FCC436" mask="url(#path-4-outside-1_13_135)"/>
<path d="M18.7238 29.0474H26.4275C26.5607 29.0474 26.6883 29.1032 26.7744 29.2048C27.1891 29.6943 28.3146 31.3343 27.8003 34.2486C27.7103 34.7583 27.2298 35.1019 26.7208 35.008C25.0181 34.6942 21.1737 34.1316 18.5113 34.8482C17.9696 34.994 17.4304 34.6258 17.3635 34.0689C17.2155 32.8386 17.2088 30.822 18.3482 29.235C18.434 29.1155 18.5768 29.0474 18.7238 29.0474Z" fill="#FCC436"/>
<path d="M19.402 31.1425C19.402 31.1425 19.0658 32.5411 20.9469 32.5758" stroke="white" stroke-width="0.905605" stroke-miterlimit="10" stroke-linecap="round" stroke-linejoin="round"/>
<path d="M19.0399 36.6236C19.0399 36.6236 22.1495 40.5011 25.7967 36.7772" stroke="#FCC436" stroke-width="2.71681" stroke-miterlimit="10" stroke-linecap="round" stroke-linejoin="round"/>
<path d="M13.3527 16.387C11.8517 15.428 9.73805 14.1399 7.26127 14.7496C7.26127 14.7496 6.53183 21.6216 14.7859 22.3511L15.3802 22.7826C15.3802 22.7826 14.2582 27.151 15.9983 30.6701" stroke="#FCC436" stroke-width="2.71681" stroke-miterlimit="10" stroke-linecap="round" stroke-linejoin="round"/>
<path d="M27.2495 21.7065C27.2495 21.7065 28.7423 21.5992 29.1249 21.2167C29.5075 20.8341 29.5075 20.2137 29.1249 19.8312C28.7423 19.4486 28.1219 19.4486 27.7394 19.8312C27.3568 20.2137 27.2495 21.7065 27.2495 21.7065Z" fill="#FCC436"/>
<path d="M25.9242 31.1215C25.9242 31.1215 26.2605 32.52 24.3793 32.5548" stroke="white" stroke-width="0.905605" stroke-miterlimit="10" stroke-linecap="round" stroke-linejoin="round"/>
<path d="M31.6029 16.291C33.0957 15.3662 35.1633 14.1348 37.5752 14.7286C37.5752 14.7286 38.3046 21.6006 30.0506 22.33L29.4562 22.7616C29.4562 22.7616 30.6996 26.6692 28.9595 30.1884" stroke="#FCC436" stroke-width="2.71681" stroke-miterlimit="10" stroke-linecap="round" stroke-linejoin="round"/>
</svg>
