<svg width="54" height="60" viewBox="0 0 54 60" fill="none" xmlns="http://www.w3.org/2000/svg">
<rect x="4.9056" y="0.905605" width="43.469" height="43.469" rx="21.7345" stroke="#FCC436" stroke-width="1.81121"/>
<path d="M36.2922 19.7364V30.9394C36.2922 31.6862 36.028 32.3239 35.4995 32.8523C34.9711 33.3808 34.3334 33.645 33.5866 33.645H20.0584C19.3116 33.645 18.6739 33.3808 18.1455 32.8523C17.617 32.3239 17.3528 31.6862 17.3528 30.9394V19.7364C16.9442 19.4968 16.6165 19.1727 16.3699 18.7641C16.1233 18.3554 16 17.9045 16 17.4113C16 16.4248 16.4826 15.5194 17.4479 14.6951C18.4132 13.8707 19.7273 13.2154 21.3901 12.7293C23.0529 12.2431 24.8637 12 26.8225 12C28.7813 12 30.5921 12.2431 32.2549 12.7293C33.9177 13.2154 35.2318 13.8707 36.1971 14.6951C37.1624 15.5194 37.645 16.4248 37.645 17.4113C37.645 17.9045 37.5217 18.3554 37.2751 18.7641C37.0285 19.1727 36.7008 19.4968 36.2922 19.7364Z" fill="#FCC436"/>
<path d="M26.4559 23.0859C26.4906 22.9217 26.5884 22.7578 26.7052 22.6486C26.7619 22.5955 26.8092 22.5685 26.8369 22.5574L26.8421 22.5554C27.1553 22.606 27.4561 22.4021 27.5223 22.0884C27.5905 21.7652 27.3838 21.4479 27.0606 21.3796C26.5799 21.2782 26.1524 21.5276 25.888 21.7749C25.6049 22.0398 25.3744 22.4178 25.2855 22.8388C25.2172 23.1621 25.424 23.4794 25.7472 23.5476C26.0704 23.6158 26.3877 23.4091 26.4559 23.0859Z" fill="white"/>
<path d="M21.4655 20.2267C19.3276 21.9298 19.2724 24.8155 20.2743 26.7596C20.9476 28.0661 22.2425 29.2289 24.1848 29.2289C24.6667 29.2289 25.0143 29.2157 25.288 29.2053C26.1172 29.1738 26.2677 29.1681 27.422 29.634C28.9573 30.2536 30.5899 30.0697 31.9541 29.2094C33.1818 28.4352 33.8864 26.6375 33.767 25.1786C33.7036 24.4053 33.7729 24.0899 33.852 23.7299C33.9221 23.4108 34 23.0566 34 22.3172C34 20.7437 33.5338 19.7406 33.0677 18.9202C32.6016 18.0997 32.095 17.2869 30.6593 16.3723C29.48 15.6212 27.2463 15.2613 25.4797 16.2417C24.1848 16.9603 23.5374 17.6136 22.7604 18.9202C22.4663 19.4148 22.1842 19.6542 21.4655 20.2267ZM31.129 23.1814C31.129 25.3615 29.3616 27.129 27.1814 27.129C25.0012 27.129 23.2338 25.3615 23.2338 23.1814C23.2338 21.0012 25.0012 19.2338 27.1814 19.2338C29.3616 19.2338 31.129 21.0012 31.129 23.1814Z" fill="white"/>
<path d="M8.42822 51.0764C8.82122 51.0764 9.15872 51.1304 9.44072 51.2384C9.72572 51.3434 9.94472 51.5129 10.0977 51.7469C10.2507 51.9779 10.3272 52.2779 10.3272 52.6469C10.3272 52.9919 10.2552 53.2799 10.1112 53.5109C9.97022 53.7419 9.78722 53.9159 9.56222 54.0329C9.34022 54.1499 9.10622 54.2129 8.86022 54.2219C9.13022 54.2279 9.38672 54.2879 9.62972 54.4019C9.87572 54.5129 10.0767 54.6899 10.2327 54.9329C10.3887 55.1729 10.4667 55.4924 10.4667 55.8914C10.4667 56.2874 10.3872 56.6219 10.2282 56.8949C10.0692 57.1649 9.83522 57.3689 9.52622 57.5069C9.22022 57.6449 8.83922 57.7139 8.38322 57.7139H6.36272V51.0764H8.42822ZM6.90722 54.1904L6.71372 53.9969H8.09072C8.61272 53.9969 9.02222 53.8934 9.31922 53.6864C9.61622 53.4764 9.76472 53.1554 9.76472 52.7234C9.76472 52.4324 9.70322 52.2029 9.58022 52.0349C9.45722 51.8669 9.28472 51.7469 9.06272 51.6749C8.84372 51.6029 8.59022 51.5669 8.30222 51.5669H6.65522L6.90722 51.2564V54.1904ZM8.27972 57.2234C8.77172 57.2234 9.16322 57.1139 9.45422 56.8949C9.74822 56.6759 9.89522 56.3324 9.89522 55.8644C9.89522 55.5854 9.84572 55.3574 9.74672 55.1804C9.65072 55.0004 9.51872 54.8609 9.35072 54.7619C9.18272 54.6599 8.99222 54.5894 8.77922 54.5504C8.56622 54.5084 8.34572 54.4874 8.11772 54.4874H6.71372L6.90722 54.2984V57.5339L6.65522 57.2234H8.27972ZM11.8402 57.7139V52.9349H12.3982V54.3434L12.2002 54.2804C12.2182 54.1304 12.2617 53.9744 12.3307 53.8124C12.4027 53.6474 12.5017 53.4929 12.6277 53.3489C12.7537 53.2049 12.9112 53.0894 13.1002 53.0024C13.2922 52.9124 13.5202 52.8674 13.7842 52.8674C13.9762 52.8674 14.1307 52.8839 14.2477 52.9169C14.3647 52.9499 14.4382 52.9754 14.4682 52.9934L14.3152 53.5334C14.2852 53.5124 14.2237 53.4854 14.1307 53.4524C14.0377 53.4194 13.9042 53.4029 13.7302 53.4029C13.4782 53.4029 13.2667 53.4524 13.0957 53.5514C12.9247 53.6474 12.7882 53.7734 12.6862 53.9294C12.5842 54.0854 12.5107 54.2519 12.4657 54.4289C12.4207 54.6029 12.3982 54.7709 12.3982 54.9329V57.7139H11.8402ZM15.3935 55.5584V55.0589H19.2635L19.1555 55.2119C19.1555 55.1939 19.1555 55.1789 19.1555 55.1669C19.1555 55.1519 19.1555 55.1369 19.1555 55.1219C19.1555 54.8129 19.0895 54.5249 18.9575 54.2579C18.8255 53.9909 18.6335 53.7764 18.3815 53.6144C18.1325 53.4524 17.828 53.3714 17.468 53.3714C17.102 53.3714 16.7795 53.4554 16.5005 53.6234C16.2215 53.7884 16.004 54.0179 15.848 54.3119C15.692 54.6029 15.614 54.9419 15.614 55.3289C15.614 55.7189 15.6905 56.0624 15.8435 56.3594C15.9995 56.6534 16.217 56.8829 16.496 57.0479C16.775 57.2099 17.1005 57.2909 17.4725 57.2909C17.7455 57.2909 17.9825 57.2579 18.1835 57.1919C18.3875 57.1229 18.5555 57.0329 18.6875 56.9219C18.8225 56.8109 18.9245 56.6939 18.9935 56.5709C19.0655 56.4449 19.1075 56.3264 19.1195 56.2154H19.673C19.661 56.3924 19.604 56.5739 19.502 56.7599C19.403 56.9429 19.2605 57.1139 19.0745 57.2729C18.8915 57.4319 18.6635 57.5609 18.3905 57.6599C18.1205 57.7559 17.8085 57.8039 17.4545 57.8039C16.9925 57.8039 16.5815 57.6989 16.2215 57.4889C15.8645 57.2789 15.5825 56.9894 15.3755 56.6204C15.1715 56.2484 15.0695 55.8209 15.0695 55.3379C15.0695 54.8519 15.173 54.4244 15.38 54.0554C15.587 53.6834 15.8705 53.3924 16.2305 53.1824C16.5905 52.9724 17 52.8674 17.459 52.8674C17.927 52.8674 18.332 52.9739 18.674 53.1869C19.016 53.3999 19.28 53.6894 19.466 54.0554C19.652 54.4184 19.745 54.8264 19.745 55.2794C19.745 55.3184 19.7435 55.3679 19.7405 55.4279C19.7405 55.4879 19.739 55.5314 19.736 55.5584H15.3935ZM22.7024 57.7994C22.3364 57.7994 22.0169 57.7439 21.7439 57.6329C21.4709 57.5219 21.2594 57.3614 21.1094 57.1514C20.9624 56.9384 20.8889 56.6819 20.8889 56.3819C20.8889 56.0789 20.9669 55.8269 21.1229 55.6259C21.2789 55.4219 21.5009 55.2629 21.7889 55.1489C22.0799 55.0349 22.4234 54.9584 22.8194 54.9194C23.4284 54.8564 23.8649 54.7934 24.1289 54.7304C24.3959 54.6644 24.5294 54.5594 24.5294 54.4154C24.5294 54.4064 24.5294 54.3974 24.5294 54.3884C24.5294 54.3764 24.5294 54.3644 24.5294 54.3524C24.5294 54.0434 24.4034 53.8034 24.1514 53.6324C23.8994 53.4614 23.5409 53.3759 23.0759 53.3759C22.5899 53.3759 22.2104 53.4719 21.9374 53.6639C21.6674 53.8559 21.5324 54.1409 21.5324 54.5189H20.9834C20.9834 54.1739 21.0704 53.8784 21.2444 53.6324C21.4184 53.3834 21.6629 53.1944 21.9779 53.0654C22.2929 52.9334 22.6604 52.8674 23.0804 52.8674C23.4584 52.8674 23.7989 52.9259 24.1019 53.0429C24.4049 53.1599 24.6449 53.3309 24.8219 53.5559C25.0019 53.7779 25.0919 54.0524 25.0919 54.3794C25.0919 54.4424 25.0919 54.5054 25.0919 54.5684C25.0919 54.6284 25.0919 54.6899 25.0919 54.7529V56.8679C25.0919 56.9699 25.0964 57.0674 25.1054 57.1604C25.1144 57.2534 25.1279 57.3344 25.1459 57.4034C25.1729 57.4904 25.2014 57.5594 25.2314 57.6104C25.2614 57.6614 25.2854 57.6959 25.3034 57.7139H24.7409C24.7289 57.7019 24.7094 57.6704 24.6824 57.6194C24.6554 57.5654 24.6284 57.5024 24.6014 57.4304C24.5774 57.3554 24.5609 57.2714 24.5519 57.1784C24.5429 57.0854 24.5384 56.9729 24.5384 56.8409L24.6284 56.9084C24.5324 57.0854 24.3929 57.2414 24.2099 57.3764C24.0269 57.5084 23.8079 57.6119 23.5529 57.6869C23.2979 57.7619 23.0144 57.7994 22.7024 57.7994ZM22.7879 57.2999C23.1119 57.2999 23.4044 57.2474 23.6654 57.1424C23.9294 57.0344 24.1394 56.8814 24.2954 56.6834C24.4514 56.4824 24.5294 56.2394 24.5294 55.9544V54.8384L24.6509 55.0454C24.4769 55.1324 24.2399 55.2029 23.9399 55.2569C23.6399 55.3079 23.3144 55.3499 22.9634 55.3829C22.4684 55.4309 22.0919 55.5254 21.8339 55.6664C21.5789 55.8074 21.4514 56.0369 21.4514 56.3549C21.4514 56.6609 21.5639 56.8949 21.7889 57.0569C22.0139 57.2189 22.3469 57.2999 22.7879 57.2999ZM26.5091 57.7139V50.6804H27.0401V55.0859L26.8826 55.0184L29.3621 52.9349H30.0866L27.7646 54.9284L27.8996 54.6314L30.1271 57.7139H29.5196L27.5261 54.9329L27.6701 55.0139L26.9501 55.6214L27.0401 55.3424V57.7139H26.5091ZM31.6851 57.7139V53.4254H30.6231V52.9349H31.6851V52.2734C31.6851 52.0934 31.7031 51.9209 31.7391 51.7559C31.7781 51.5909 31.8351 51.4394 31.9101 51.3014C31.9881 51.1604 32.0856 51.0389 32.2026 50.9369C32.3226 50.8349 32.4651 50.7554 32.6301 50.6984C32.7951 50.6414 32.9826 50.6129 33.1926 50.6129C33.3216 50.6129 33.4281 50.6219 33.5121 50.6399C33.5961 50.6549 33.6531 50.6699 33.6831 50.6849V51.1754C33.6441 51.1634 33.5841 51.1499 33.5031 51.1349C33.4221 51.1199 33.3351 51.1124 33.2421 51.1124C33.0291 51.1124 32.8566 51.1484 32.7246 51.2204C32.5926 51.2924 32.4906 51.3884 32.4186 51.5084C32.3496 51.6284 32.3031 51.7634 32.2791 51.9134C32.2551 52.0604 32.2431 52.2104 32.2431 52.3634V52.9349H33.6561V53.4254H32.2431V57.7139H31.6851ZM36.0618 57.7994C35.6958 57.7994 35.3763 57.7439 35.1033 57.6329C34.8303 57.5219 34.6188 57.3614 34.4688 57.1514C34.3218 56.9384 34.2483 56.6819 34.2483 56.3819C34.2483 56.0789 34.3263 55.8269 34.4823 55.6259C34.6383 55.4219 34.8603 55.2629 35.1483 55.1489C35.4393 55.0349 35.7828 54.9584 36.1788 54.9194C36.7878 54.8564 37.2243 54.7934 37.4883 54.7304C37.7553 54.6644 37.8888 54.5594 37.8888 54.4154C37.8888 54.4064 37.8888 54.3974 37.8888 54.3884C37.8888 54.3764 37.8888 54.3644 37.8888 54.3524C37.8888 54.0434 37.7628 53.8034 37.5108 53.6324C37.2588 53.4614 36.9003 53.3759 36.4353 53.3759C35.9493 53.3759 35.5698 53.4719 35.2968 53.6639C35.0268 53.8559 34.8918 54.1409 34.8918 54.5189H34.3428C34.3428 54.1739 34.4298 53.8784 34.6038 53.6324C34.7778 53.3834 35.0223 53.1944 35.3373 53.0654C35.6523 52.9334 36.0198 52.8674 36.4398 52.8674C36.8178 52.8674 37.1583 52.9259 37.4613 53.0429C37.7643 53.1599 38.0043 53.3309 38.1813 53.5559C38.3613 53.7779 38.4513 54.0524 38.4513 54.3794C38.4513 54.4424 38.4513 54.5054 38.4513 54.5684C38.4513 54.6284 38.4513 54.6899 38.4513 54.7529V56.8679C38.4513 56.9699 38.4558 57.0674 38.4648 57.1604C38.4738 57.2534 38.4873 57.3344 38.5053 57.4034C38.5323 57.4904 38.5608 57.5594 38.5908 57.6104C38.6208 57.6614 38.6448 57.6959 38.6628 57.7139H38.1003C38.0883 57.7019 38.0688 57.6704 38.0418 57.6194C38.0148 57.5654 37.9878 57.5024 37.9608 57.4304C37.9368 57.3554 37.9203 57.2714 37.9113 57.1784C37.9023 57.0854 37.8978 56.9729 37.8978 56.8409L37.9878 56.9084C37.8918 57.0854 37.7523 57.2414 37.5693 57.3764C37.3863 57.5084 37.1673 57.6119 36.9123 57.6869C36.6573 57.7619 36.3738 57.7994 36.0618 57.7994ZM36.1473 57.2999C36.4713 57.2999 36.7638 57.2474 37.0248 57.1424C37.2888 57.0344 37.4988 56.8814 37.6548 56.6834C37.8108 56.4824 37.8888 56.2394 37.8888 55.9544V54.8384L38.0103 55.0454C37.8363 55.1324 37.5993 55.2029 37.2993 55.2569C36.9993 55.3079 36.6738 55.3499 36.3228 55.3829C35.8278 55.4309 35.4513 55.5254 35.1933 55.6664C34.9383 55.8074 34.8108 56.0369 34.8108 56.3549C34.8108 56.6609 34.9233 56.8949 35.1483 57.0569C35.3733 57.2189 35.7063 57.2999 36.1473 57.2999ZM41.601 57.7994C41.313 57.7994 41.0505 57.7694 40.8135 57.7094C40.5765 57.6494 40.3725 57.5624 40.2015 57.4484C40.0305 57.3314 39.897 57.1904 39.801 57.0254C39.708 56.8574 39.66 56.6654 39.657 56.4494C39.654 56.4224 39.6525 56.3954 39.6525 56.3684C39.6525 56.3384 39.6525 56.3129 39.6525 56.2919H40.215C40.215 56.3129 40.215 56.3339 40.215 56.3549C40.215 56.3729 40.215 56.3969 40.215 56.4269C40.224 56.7029 40.35 56.9174 40.593 57.0704C40.839 57.2204 41.178 57.2954 41.61 57.2954C41.886 57.2954 42.1275 57.2654 42.3345 57.2054C42.5445 57.1424 42.7095 57.0509 42.8295 56.9309C42.9495 56.8079 43.0095 56.6594 43.0095 56.4854C43.0095 56.1944 42.8835 55.9874 42.6315 55.8644C42.3825 55.7384 42.015 55.6334 41.529 55.5494C41.277 55.5074 41.0415 55.4534 40.8225 55.3874C40.6065 55.3184 40.416 55.2329 40.251 55.1309C40.089 55.0259 39.9615 54.8954 39.8685 54.7394C39.7755 54.5834 39.729 54.3959 39.729 54.1769C39.729 53.8979 39.813 53.6609 39.981 53.4659C40.149 53.2709 40.374 53.1224 40.656 53.0204C40.941 52.9184 41.2545 52.8674 41.5965 52.8674C41.9355 52.8674 42.246 52.9199 42.528 53.0249C42.813 53.1269 43.041 53.2799 43.212 53.4839C43.383 53.6879 43.4685 53.9459 43.4685 54.2579C43.4685 54.2699 43.4685 54.2849 43.4685 54.3029C43.4685 54.3209 43.4685 54.3389 43.4685 54.3569H42.9105C42.9105 54.3419 42.9105 54.3284 42.9105 54.3164C42.9105 54.3014 42.9105 54.2879 42.9105 54.2759C42.9105 54.0569 42.849 53.8814 42.726 53.7494C42.603 53.6174 42.4425 53.5214 42.2445 53.4614C42.0465 53.3984 41.835 53.3669 41.61 53.3669C41.388 53.3669 41.175 53.3939 40.971 53.4479C40.767 53.5019 40.6005 53.5874 40.4715 53.7044C40.3455 53.8184 40.2825 53.9699 40.2825 54.1589C40.2825 54.3479 40.3425 54.5009 40.4625 54.6179C40.5825 54.7319 40.752 54.8249 40.971 54.8969C41.19 54.9659 41.445 55.0274 41.736 55.0814C42.003 55.1294 42.2475 55.1879 42.4695 55.2569C42.6915 55.3229 42.8835 55.4069 43.0455 55.5089C43.2075 55.6109 43.3335 55.7399 43.4235 55.8959C43.5135 56.0489 43.5585 56.2364 43.5585 56.4584C43.5585 56.6774 43.509 56.8709 43.41 57.0389C43.311 57.2039 43.1715 57.3434 42.9915 57.4574C42.8145 57.5714 42.6075 57.6569 42.3705 57.7139C42.1335 57.7709 41.877 57.7994 41.601 57.7994ZM46.4292 57.7859C46.2942 57.7859 46.1622 57.7694 46.0332 57.7364C45.9072 57.7034 45.7932 57.6449 45.6912 57.5609C45.5922 57.4739 45.5142 57.3554 45.4572 57.2054C45.4002 57.0554 45.3717 56.8649 45.3717 56.6339C45.3717 56.5709 45.3717 56.5064 45.3717 56.4404C45.3717 56.3714 45.3717 56.2994 45.3717 56.2244V53.4254H44.2197V52.9349H45.0477C45.1257 52.9349 45.1872 52.9319 45.2322 52.9259C45.2772 52.9199 45.3087 52.9049 45.3267 52.8809C45.3477 52.8569 45.3597 52.8194 45.3627 52.7684C45.3687 52.7174 45.3717 52.6469 45.3717 52.5569V51.3914H45.9297V52.9349H47.4597V53.4254H45.9297V56.0399C45.9297 56.1119 45.9297 56.1809 45.9297 56.2469C45.9297 56.3129 45.9297 56.3744 45.9297 56.4314C45.9297 56.7014 45.9687 56.9129 46.0467 57.0659C46.1277 57.2189 46.2792 57.2954 46.5012 57.2954C46.5852 57.2954 46.6677 57.2879 46.7487 57.2729C46.8297 57.2579 46.8912 57.2414 46.9332 57.2234V57.7094C46.8822 57.7304 46.8117 57.7484 46.7217 57.7634C46.6317 57.7784 46.5342 57.7859 46.4292 57.7859Z" fill="#797D86"/>
</svg>
