<svg width="46" height="60" viewBox="0 0 46 60" fill="none" xmlns="http://www.w3.org/2000/svg">
<rect x="0.905605" y="0.905605" width="43.469" height="43.469" rx="21.7345" stroke="#FCC436" stroke-width="1.81121"/>
<path d="M10.3594 55.4639C10.3594 55.7249 10.3114 55.9919 10.2154 56.2649C10.1194 56.5379 9.97542 56.7914 9.78342 57.0254C9.59142 57.2564 9.34992 57.4439 9.05892 57.5879C8.76792 57.7289 8.42742 57.7994 8.03742 57.7994C7.49742 57.7994 7.03692 57.6554 6.65592 57.3674C6.27492 57.0794 5.98392 56.6789 5.78292 56.1659C5.58492 55.6529 5.48592 55.0634 5.48592 54.3974C5.48592 53.7284 5.58492 53.1389 5.78292 52.6289C5.98392 52.1189 6.27492 51.7214 6.65592 51.4364C7.03692 51.1484 7.49742 51.0044 8.03742 51.0044C8.49042 51.0044 8.87592 51.1004 9.19392 51.2924C9.51492 51.4814 9.76842 51.7229 9.95442 52.0169C10.1434 52.3109 10.2649 52.6124 10.3189 52.9214C10.3459 53.0624 10.3594 53.1974 10.3594 53.3264H9.80142C9.80142 53.2454 9.79392 53.1509 9.77892 53.0429C9.73992 52.7789 9.64692 52.5314 9.49992 52.3004C9.35592 52.0664 9.16092 51.8759 8.91492 51.7289C8.67192 51.5819 8.37942 51.5084 8.03742 51.5084C7.63842 51.5084 7.29042 51.6224 6.99342 51.8504C6.69642 52.0754 6.46542 52.4024 6.30042 52.8314C6.13542 53.2604 6.05292 53.7824 6.05292 54.3974C6.05292 55.0094 6.13542 55.5329 6.30042 55.9679C6.46542 56.3999 6.69642 56.7299 6.99342 56.9579C7.29042 57.1829 7.63842 57.2954 8.03742 57.2954C8.32242 57.2954 8.57442 57.2414 8.79342 57.1334C9.01242 57.0254 9.19692 56.8829 9.34692 56.7059C9.49692 56.5259 9.60942 56.3279 9.68442 56.1119C9.76242 55.8959 9.80142 55.6799 9.80142 55.4639H10.3594ZM15.0436 57.7139V55.9094C15.0436 55.8194 15.0436 55.7144 15.0436 55.5944C15.0436 55.4744 15.0436 55.3544 15.0436 55.2344C15.0436 55.1114 15.0436 55.0049 15.0436 54.9149C15.0436 54.4259 14.9341 54.0509 14.7151 53.7899C14.4991 53.5259 14.1661 53.3939 13.7161 53.3939C13.4131 53.3939 13.1446 53.4569 12.9106 53.5829C12.6766 53.7089 12.4921 53.8769 12.3571 54.0869C12.2251 54.2939 12.1591 54.5234 12.1591 54.7754L11.7901 54.6674C11.7901 54.3464 11.8756 54.0494 12.0466 53.7764C12.2206 53.5034 12.4591 53.2844 12.7621 53.1194C13.0681 52.9514 13.4176 52.8674 13.8106 52.8674C14.3806 52.8674 14.8201 53.0399 15.1291 53.3849C15.4411 53.7299 15.5971 54.2069 15.5971 54.8159C15.5971 54.9779 15.5971 55.1609 15.5971 55.3649C15.5971 55.5659 15.5971 55.7714 15.5971 55.9814V57.7139H15.0436ZM11.6011 57.7139V50.6804H12.1591V57.7139H11.6011ZM17.1259 57.7139V52.9349H17.6749V57.7139H17.1259ZM17.4049 51.7289C17.2879 51.7289 17.1874 51.6959 17.1034 51.6299C17.0194 51.5609 16.9774 51.4694 16.9774 51.3554C16.9774 51.2444 17.0194 51.1559 17.1034 51.0899C17.1874 51.0209 17.2879 50.9864 17.4049 50.9864C17.5189 50.9864 17.6179 51.0209 17.7019 51.0899C17.7859 51.1559 17.8279 51.2444 17.8279 51.3554C17.8279 51.4694 17.7859 51.5609 17.7019 51.6299C17.6179 51.6959 17.5189 51.7289 17.4049 51.7289ZM21.4301 57.7994C20.9921 57.7994 20.5916 57.7019 20.2286 57.5069C19.8656 57.3089 19.5746 57.0254 19.3556 56.6564C19.1396 56.2874 19.0316 55.8434 19.0316 55.3244C19.0316 54.8054 19.1396 54.3629 19.3556 53.9969C19.5746 53.6309 19.8656 53.3519 20.2286 53.1599C20.5916 52.9649 20.9921 52.8674 21.4301 52.8674C21.7661 52.8674 22.0661 52.9199 22.3301 53.0249C22.5941 53.1269 22.8176 53.2634 23.0006 53.4344C23.1836 53.6024 23.3231 53.7869 23.4191 53.9879C23.5151 54.1889 23.5631 54.3869 23.5631 54.5819C23.5631 54.5849 23.5631 54.5894 23.5631 54.5954C23.5631 54.5984 23.5631 54.6029 23.5631 54.6089H23.0096C23.0096 54.5939 23.0081 54.5774 23.0051 54.5594C23.0051 54.5384 23.0036 54.5189 23.0006 54.5009C22.9736 54.2849 22.8881 54.0929 22.7441 53.9249C22.6001 53.7569 22.4156 53.6234 22.1906 53.5244C21.9656 53.4254 21.7106 53.3759 21.4256 53.3759C21.1046 53.3759 20.8046 53.4494 20.5256 53.5964C20.2496 53.7404 20.0261 53.9564 19.8551 54.2444C19.6841 54.5324 19.5986 54.8924 19.5986 55.3244C19.5986 55.7534 19.6826 56.1149 19.8506 56.4089C20.0216 56.6999 20.2451 56.9204 20.5211 57.0704C20.8001 57.2174 21.1016 57.2909 21.4256 57.2909C21.7796 57.2909 22.0721 57.2324 22.3031 57.1154C22.5341 56.9984 22.7081 56.8469 22.8251 56.6609C22.9421 56.4749 23.0036 56.2814 23.0096 56.0804H23.5631C23.5631 56.2814 23.5166 56.4839 23.4236 56.6879C23.3336 56.8919 23.1986 57.0779 23.0186 57.2459C22.8416 57.4139 22.6196 57.5489 22.3526 57.6509C22.0886 57.7499 21.7811 57.7994 21.4301 57.7994ZM24.8813 57.7139V50.6804H25.4123V55.0859L25.2548 55.0184L27.7343 52.9349H28.4588L26.1368 54.9284L26.2718 54.6314L28.4993 57.7139H27.8918L25.8983 54.9329L26.0423 55.0139L25.3223 55.6214L25.4123 55.3424V57.7139H24.8813ZM29.3663 55.5584V55.0589H33.2363L33.1283 55.2119C33.1283 55.1939 33.1283 55.1789 33.1283 55.1669C33.1283 55.1519 33.1283 55.1369 33.1283 55.1219C33.1283 54.8129 33.0623 54.5249 32.9303 54.2579C32.7983 53.9909 32.6063 53.7764 32.3543 53.6144C32.1053 53.4524 31.8008 53.3714 31.4408 53.3714C31.0748 53.3714 30.7523 53.4554 30.4733 53.6234C30.1943 53.7884 29.9768 54.0179 29.8208 54.3119C29.6648 54.6029 29.5868 54.9419 29.5868 55.3289C29.5868 55.7189 29.6633 56.0624 29.8163 56.3594C29.9723 56.6534 30.1898 56.8829 30.4688 57.0479C30.7478 57.2099 31.0733 57.2909 31.4453 57.2909C31.7183 57.2909 31.9553 57.2579 32.1563 57.1919C32.3603 57.1229 32.5283 57.0329 32.6603 56.9219C32.7953 56.8109 32.8973 56.6939 32.9663 56.5709C33.0383 56.4449 33.0803 56.3264 33.0923 56.2154H33.6458C33.6338 56.3924 33.5768 56.5739 33.4748 56.7599C33.3758 56.9429 33.2333 57.1139 33.0473 57.2729C32.8643 57.4319 32.6363 57.5609 32.3633 57.6599C32.0933 57.7559 31.7813 57.8039 31.4273 57.8039C30.9653 57.8039 30.5543 57.6989 30.1943 57.4889C29.8373 57.2789 29.5553 56.9894 29.3483 56.6204C29.1443 56.2484 29.0423 55.8209 29.0423 55.3379C29.0423 54.8519 29.1458 54.4244 29.3528 54.0554C29.5598 53.6834 29.8433 53.3924 30.2033 53.1824C30.5633 52.9724 30.9728 52.8674 31.4318 52.8674C31.8998 52.8674 32.3048 52.9739 32.6468 53.1869C32.9888 53.3999 33.2528 53.6894 33.4388 54.0554C33.6248 54.4184 33.7178 54.8264 33.7178 55.2794C33.7178 55.3184 33.7163 55.3679 33.7133 55.4279C33.7133 55.4879 33.7118 55.5314 33.7088 55.5584H29.3663ZM38.4707 57.7139V55.3379C38.4707 55.1909 38.4707 55.0739 38.4707 54.9869C38.4707 54.8999 38.4707 54.8144 38.4707 54.7304C38.4707 54.4634 38.4227 54.2309 38.3267 54.0329C38.2337 53.8319 38.0897 53.6759 37.8947 53.5649C37.6997 53.4509 37.4492 53.3939 37.1432 53.3939C36.8732 53.3939 36.6197 53.4614 36.3827 53.5964C36.1457 53.7284 35.9537 53.9084 35.8067 54.1364C35.6627 54.3644 35.5907 54.6209 35.5907 54.9059L35.2532 54.7799C35.2532 54.4169 35.3462 54.0914 35.5322 53.8034C35.7212 53.5154 35.9672 53.2874 36.2702 53.1194C36.5762 52.9514 36.9002 52.8674 37.2422 52.8674C37.6052 52.8674 37.9202 52.9364 38.1872 53.0744C38.4542 53.2094 38.6597 53.4059 38.8037 53.6639C38.9507 53.9189 39.0242 54.2294 39.0242 54.5954C39.0242 54.7214 39.0242 54.8564 39.0242 55.0004C39.0242 55.1444 39.0242 55.2749 39.0242 55.3919V57.7139H38.4707ZM35.0327 57.7139V52.9349H35.5907V57.7139H35.0327Z" fill="#797D86"/>
<path d="M26.95 14.3857C26.95 14.3857 29.0641 10.8824 28.0977 10.3991C27.1312 9.91591 25.6816 10.8824 25.6816 10.8824C25.6816 10.8824 26.648 7.49979 24.7151 7.49979C22.7822 7.49979 22.299 9.43269 22.299 9.43269C22.299 9.43269 21.5949 5.42385 18.9164 6.53334C17.2425 7.22677 16.5003 8.94946 18.9164 13.7817" fill="#FCC436"/>
<path d="M18.9049 24.1084C19.6551 24.1084 20.2633 23.5003 20.2633 22.75C20.2633 21.9998 19.6551 21.3916 18.9049 21.3916C18.1546 21.3916 17.5464 21.9998 17.5464 22.75C17.5464 23.5003 18.1546 24.1084 18.9049 24.1084Z" fill="#FCC436"/>
<path d="M27.603 24.1084C28.3532 24.1084 28.9614 23.5003 28.9614 22.75C28.9614 21.9998 28.3532 21.3916 27.603 21.3916C26.8527 21.3916 26.2446 21.9998 26.2446 22.75C26.2446 23.5003 26.8527 24.1084 27.603 24.1084Z" fill="#FCC436"/>
<path d="M22.8717 24.291C22.8717 24.291 31.5697 23.8077 22.8717 32.989C22.8717 32.989 14.1736 24.291 22.8717 24.291Z" fill="#FCC436"/>
<path d="M22.862 34.4387C22.9072 35.7963 22.9079 35.7963 22.9086 35.7963L22.9104 35.7962L22.9149 35.7961L22.928 35.7956L22.9695 35.7937C23.004 35.792 23.0518 35.7894 23.1118 35.7855C23.2319 35.7776 23.4012 35.7644 23.6108 35.7427C24.0292 35.6993 24.6128 35.6214 25.288 35.4822C26.6199 35.2078 28.3953 34.6777 29.9578 33.6361C31.5473 32.5764 32.9556 30.9547 33.3739 28.5563C33.782 26.2163 33.2083 23.3565 31.3474 19.8579C31.327 19.8067 31.2988 19.7382 31.2625 19.6548C31.187 19.4813 31.0758 19.2418 30.9254 18.9582C30.6261 18.3939 30.1637 17.6393 29.5075 16.8795C28.1898 15.3538 26.0317 13.7513 22.862 13.7513C19.6922 13.7513 17.5341 15.3538 16.2164 16.8795C15.5603 17.6393 15.0978 18.3939 14.7986 18.9582C14.6482 19.2418 14.5369 19.4813 14.4614 19.6548C14.4251 19.7382 14.3969 19.8067 14.3765 19.8579C12.5157 23.3565 11.9419 26.2163 12.35 28.5563C12.7684 30.9547 14.1766 32.5764 15.7661 33.6361C17.3287 34.6777 19.104 35.2078 20.436 35.4822C21.1111 35.6214 21.6948 35.6993 22.1131 35.7427C22.3227 35.7644 22.4921 35.7776 22.6121 35.7855C22.6721 35.7894 22.72 35.792 22.7544 35.7937L22.796 35.7956L22.809 35.7961L22.8135 35.7962L22.8153 35.7963C22.816 35.7963 22.8167 35.7963 22.862 34.4387ZM22.862 34.4387L22.8167 35.7963C22.8469 35.7973 22.8771 35.7973 22.9072 35.7963L22.862 34.4387Z" stroke="#FCC436" stroke-width="2.71681" stroke-miterlimit="10" stroke-linecap="round" stroke-linejoin="round"/>
</svg>
