<svg width="46" height="60" viewBox="0 0 46 60" fill="none" xmlns="http://www.w3.org/2000/svg">
<rect x="0.905605" y="0.905605" width="43.469" height="43.469" rx="21.7345" stroke="#FCC436" stroke-width="1.81121"/>
<path d="M33.3142 11.6237C33.2347 11.9064 33.058 12.1185 32.7841 12.2598C32.5103 12.4012 32.2231 12.4365 31.9228 12.3658L28.0269 11.2262L27.2848 14.0885H27.4174C27.647 14.0885 27.8458 14.1724 28.0137 14.3403C28.1815 14.5081 28.2654 14.7069 28.2654 14.9366V34.4424C28.2654 34.9194 28.0976 35.3214 27.7619 35.6483C27.4262 35.9751 27.0287 36.1386 26.5693 36.1386H19.7846C19.3076 36.1386 18.9056 35.9707 18.5788 35.635C18.2519 35.2993 18.0885 34.9018 18.0885 34.4424V19.177C16.675 19.177 15.4736 18.6822 14.4841 17.6928C13.4947 16.7034 13 15.5019 13 14.0885C13 12.675 13.4947 11.4736 14.4841 10.4841C15.4736 9.49471 16.675 9 18.0885 9C19.5019 9 20.7034 9.49471 21.6928 10.4841C22.6822 11.4736 23.177 12.675 23.177 14.0885H25.1116L26.2247 9.84808C26.2954 9.63606 26.3926 9.47263 26.5163 9.35778C26.64 9.24294 26.799 9.16343 26.9933 9.11926C27.1877 9.07509 27.3379 9.04859 27.4439 9.03975C27.5499 9.03092 27.7354 9.0265 28.0004 9.0265L32.5058 10.3516C32.8239 10.4223 33.058 10.5813 33.2082 10.8287C33.3583 11.076 33.3937 11.3411 33.3142 11.6237ZM19.7846 17.0038C20.297 16.7034 20.7034 16.297 21.0038 15.7846H19.7846V17.0038ZM18.0885 10.6962C17.1521 10.6962 16.3526 11.0274 15.69 11.69C15.0274 12.3526 14.6962 13.1521 14.6962 14.0885C14.6962 15.0249 15.0274 15.8244 15.69 16.487C16.3526 17.1495 17.1521 17.4808 18.0885 17.4808V14.9366C18.0885 14.7069 18.1724 14.5081 18.3403 14.3403C18.5081 14.1724 18.7069 14.0885 18.9366 14.0885H21.4808C21.4808 13.1521 21.1495 12.3526 20.487 11.69C19.8244 11.0274 19.0249 10.6962 18.0885 10.6962ZM22.8589 15.7846C22.6116 16.509 22.2185 17.1407 21.6796 17.6796C21.1407 18.2185 20.509 18.6116 19.7846 18.8589V20.8731H23.3095L24.6611 15.7846H22.8589ZM26.5693 16.7917L25.4827 20.8731H26.5693V16.7917Z" fill="#FCC436"/>
<path d="M10.1581 55.75C10.1581 56.011 10.1101 56.278 10.0141 56.551C9.91812 56.824 9.77412 57.0775 9.58212 57.3115C9.39012 57.5425 9.14862 57.73 8.85762 57.874C8.56662 58.015 8.22612 58.0855 7.83612 58.0855C7.29612 58.0855 6.83562 57.9415 6.45462 57.6535C6.07362 57.3655 5.78262 56.965 5.58162 56.452C5.38362 55.939 5.28462 55.3495 5.28462 54.6835C5.28462 54.0145 5.38362 53.425 5.58162 52.915C5.78262 52.405 6.07362 52.0075 6.45462 51.7225C6.83562 51.4345 7.29612 51.2905 7.83612 51.2905C8.28912 51.2905 8.67462 51.3865 8.99262 51.5785C9.31362 51.7675 9.56712 52.009 9.75312 52.303C9.94212 52.597 10.0636 52.8985 10.1176 53.2075C10.1446 53.3485 10.1581 53.4835 10.1581 53.6125H9.60012C9.60012 53.5315 9.59262 53.437 9.57762 53.329C9.53862 53.065 9.44562 52.8175 9.29862 52.5865C9.15462 52.3525 8.95962 52.162 8.71362 52.015C8.47062 51.868 8.17812 51.7945 7.83612 51.7945C7.43712 51.7945 7.08912 51.9085 6.79212 52.1365C6.49512 52.3615 6.26412 52.6885 6.09912 53.1175C5.93412 53.5465 5.85162 54.0685 5.85162 54.6835C5.85162 55.2955 5.93412 55.819 6.09912 56.254C6.26412 56.686 6.49512 57.016 6.79212 57.244C7.08912 57.469 7.43712 57.5815 7.83612 57.5815C8.12112 57.5815 8.37312 57.5275 8.59212 57.4195C8.81112 57.3115 8.99562 57.169 9.14562 56.992C9.29562 56.812 9.40812 56.614 9.48312 56.398C9.56112 56.182 9.60012 55.966 9.60012 55.75H10.1581ZM13.5778 58.081C13.1098 58.081 12.6958 57.9745 12.3358 57.7615C11.9758 57.5455 11.6938 57.25 11.4898 56.875C11.2858 56.5 11.1838 56.077 11.1838 55.606C11.1838 55.132 11.2858 54.7105 11.4898 54.3415C11.6938 53.9725 11.9758 53.683 12.3358 53.473C12.6958 53.263 13.1098 53.158 13.5778 53.158C14.0458 53.158 14.4598 53.263 14.8198 53.473C15.1798 53.683 15.4618 53.9725 15.6658 54.3415C15.8698 54.7105 15.9718 55.132 15.9718 55.606C15.9718 56.077 15.8698 56.5 15.6658 56.875C15.4618 57.25 15.1798 57.5455 14.8198 57.7615C14.4598 57.9745 14.0458 58.081 13.5778 58.081ZM13.5778 57.5725C13.9378 57.5725 14.2543 57.4885 14.5273 57.3205C14.8033 57.1525 15.0193 56.92 15.1753 56.623C15.3313 56.326 15.4093 55.987 15.4093 55.606C15.4093 55.222 15.3313 54.8845 15.1753 54.5935C15.0193 54.3025 14.8033 54.076 14.5273 53.914C14.2543 53.749 13.9378 53.6665 13.5778 53.6665C13.2208 53.6665 12.9043 53.749 12.6283 53.914C12.3523 54.076 12.1363 54.3025 11.9803 54.5935C11.8243 54.8845 11.7463 55.222 11.7463 55.606C11.7463 55.987 11.8243 56.326 11.9803 56.623C12.1363 56.92 12.3523 57.1525 12.6283 57.3205C12.9043 57.4885 13.2208 57.5725 13.5778 57.5725ZM19.4709 58.0855C19.0329 58.0855 18.6324 57.988 18.2694 57.793C17.9064 57.595 17.6154 57.3115 17.3964 56.9425C17.1804 56.5735 17.0724 56.1295 17.0724 55.6105C17.0724 55.0915 17.1804 54.649 17.3964 54.283C17.6154 53.917 17.9064 53.638 18.2694 53.446C18.6324 53.251 19.0329 53.1535 19.4709 53.1535C19.8069 53.1535 20.1069 53.206 20.3709 53.311C20.6349 53.413 20.8584 53.5495 21.0414 53.7205C21.2244 53.8885 21.3639 54.073 21.4599 54.274C21.5559 54.475 21.6039 54.673 21.6039 54.868C21.6039 54.871 21.6039 54.8755 21.6039 54.8815C21.6039 54.8845 21.6039 54.889 21.6039 54.895H21.0504C21.0504 54.88 21.0489 54.8635 21.0459 54.8455C21.0459 54.8245 21.0444 54.805 21.0414 54.787C21.0144 54.571 20.9289 54.379 20.7849 54.211C20.6409 54.043 20.4564 53.9095 20.2314 53.8105C20.0064 53.7115 19.7514 53.662 19.4664 53.662C19.1454 53.662 18.8454 53.7355 18.5664 53.8825C18.2904 54.0265 18.0669 54.2425 17.8959 54.5305C17.7249 54.8185 17.6394 55.1785 17.6394 55.6105C17.6394 56.0395 17.7234 56.401 17.8914 56.695C18.0624 56.986 18.2859 57.2065 18.5619 57.3565C18.8409 57.5035 19.1424 57.577 19.4664 57.577C19.8204 57.577 20.1129 57.5185 20.3439 57.4015C20.5749 57.2845 20.7489 57.133 20.8659 56.947C20.9829 56.761 21.0444 56.5675 21.0504 56.3665H21.6039C21.6039 56.5675 21.5574 56.77 21.4644 56.974C21.3744 57.178 21.2394 57.364 21.0594 57.532C20.8824 57.7 20.6604 57.835 20.3934 57.937C20.1294 58.036 19.8219 58.0855 19.4709 58.0855ZM22.9222 58V50.9665H23.4532V55.372L23.2957 55.3045L25.7752 53.221H26.4997L24.1777 55.2145L24.3127 54.9175L26.5402 58H25.9327L23.9392 55.219L24.0832 55.3L23.3632 55.9075L23.4532 55.6285V58H22.9222ZM29.2456 58.072C29.1106 58.072 28.9786 58.0555 28.8496 58.0225C28.7236 57.9895 28.6096 57.931 28.5076 57.847C28.4086 57.76 28.3306 57.6415 28.2736 57.4915C28.2166 57.3415 28.1881 57.151 28.1881 56.92C28.1881 56.857 28.1881 56.7925 28.1881 56.7265C28.1881 56.6575 28.1881 56.5855 28.1881 56.5105V53.7115H27.0361V53.221H27.8641C27.9421 53.221 28.0036 53.218 28.0486 53.212C28.0936 53.206 28.1251 53.191 28.1431 53.167C28.1641 53.143 28.1761 53.1055 28.1791 53.0545C28.1851 53.0035 28.1881 52.933 28.1881 52.843V51.6775H28.7461V53.221H30.2761V53.7115H28.7461V56.326C28.7461 56.398 28.7461 56.467 28.7461 56.533C28.7461 56.599 28.7461 56.6605 28.7461 56.7175C28.7461 56.9875 28.7851 57.199 28.8631 57.352C28.9441 57.505 29.0956 57.5815 29.3176 57.5815C29.4016 57.5815 29.4841 57.574 29.5651 57.559C29.6461 57.544 29.7076 57.5275 29.7496 57.5095V57.9955C29.6986 58.0165 29.6281 58.0345 29.5381 58.0495C29.4481 58.0645 29.3506 58.072 29.2456 58.072ZM32.8177 58.0855C32.4517 58.0855 32.1322 58.03 31.8592 57.919C31.5862 57.808 31.3747 57.6475 31.2247 57.4375C31.0777 57.2245 31.0042 56.968 31.0042 56.668C31.0042 56.365 31.0822 56.113 31.2382 55.912C31.3942 55.708 31.6162 55.549 31.9042 55.435C32.1952 55.321 32.5387 55.2445 32.9347 55.2055C33.5437 55.1425 33.9802 55.0795 34.2442 55.0165C34.5112 54.9505 34.6447 54.8455 34.6447 54.7015C34.6447 54.6925 34.6447 54.6835 34.6447 54.6745C34.6447 54.6625 34.6447 54.6505 34.6447 54.6385C34.6447 54.3295 34.5187 54.0895 34.2667 53.9185C34.0147 53.7475 33.6562 53.662 33.1912 53.662C32.7052 53.662 32.3257 53.758 32.0527 53.95C31.7827 54.142 31.6477 54.427 31.6477 54.805H31.0987C31.0987 54.46 31.1857 54.1645 31.3597 53.9185C31.5337 53.6695 31.7782 53.4805 32.0932 53.3515C32.4082 53.2195 32.7757 53.1535 33.1957 53.1535C33.5737 53.1535 33.9142 53.212 34.2172 53.329C34.5202 53.446 34.7602 53.617 34.9372 53.842C35.1172 54.064 35.2072 54.3385 35.2072 54.6655C35.2072 54.7285 35.2072 54.7915 35.2072 54.8545C35.2072 54.9145 35.2072 54.976 35.2072 55.039V57.154C35.2072 57.256 35.2117 57.3535 35.2207 57.4465C35.2297 57.5395 35.2432 57.6205 35.2612 57.6895C35.2882 57.7765 35.3167 57.8455 35.3467 57.8965C35.3767 57.9475 35.4007 57.982 35.4187 58H34.8562C34.8442 57.988 34.8247 57.9565 34.7977 57.9055C34.7707 57.8515 34.7437 57.7885 34.7167 57.7165C34.6927 57.6415 34.6762 57.5575 34.6672 57.4645C34.6582 57.3715 34.6537 57.259 34.6537 57.127L34.7437 57.1945C34.6477 57.3715 34.5082 57.5275 34.3252 57.6625C34.1422 57.7945 33.9232 57.898 33.6682 57.973C33.4132 58.048 33.1297 58.0855 32.8177 58.0855ZM32.9032 57.586C33.2272 57.586 33.5197 57.5335 33.7807 57.4285C34.0447 57.3205 34.2547 57.1675 34.4107 56.9695C34.5667 56.7685 34.6447 56.5255 34.6447 56.2405V55.1245L34.7662 55.3315C34.5922 55.4185 34.3552 55.489 34.0552 55.543C33.7552 55.594 33.4297 55.636 33.0787 55.669C32.5837 55.717 32.2072 55.8115 31.9492 55.9525C31.6942 56.0935 31.5667 56.323 31.5667 56.641C31.5667 56.947 31.6792 57.181 31.9042 57.343C32.1292 57.505 32.4622 57.586 32.9032 57.586ZM36.6649 58V53.221H37.2139V58H36.6649ZM36.9439 52.015C36.8269 52.015 36.7264 51.982 36.6424 51.916C36.5584 51.847 36.5164 51.7555 36.5164 51.6415C36.5164 51.5305 36.5584 51.442 36.6424 51.376C36.7264 51.307 36.8269 51.2725 36.9439 51.2725C37.0579 51.2725 37.1569 51.307 37.2409 51.376C37.3249 51.442 37.3669 51.5305 37.3669 51.6415C37.3669 51.7555 37.3249 51.847 37.2409 51.916C37.1569 51.982 37.0579 52.015 36.9439 52.015ZM39.403 50.9665V58H38.854V50.9665H39.403Z" fill="#797D86"/>
</svg>
