<svg width="46" height="60" viewBox="0 0 46 60" fill="none" xmlns="http://www.w3.org/2000/svg">
<rect x="0.905605" y="0.905605" width="43.469" height="43.469" rx="21.7345" stroke="#FCC436" stroke-width="1.81121"/>
<path d="M17.0742 15.6895V12.2019C17.0742 11.9707 17.1661 11.7489 17.3296 11.5854C17.4931 11.4219 17.7149 11.33 17.9461 11.33C18.1774 11.33 18.3991 11.4219 18.5627 11.5854C18.7262 11.7489 18.818 11.9707 18.818 12.2019V15.6895C18.818 15.9207 18.7262 16.1425 18.5627 16.306C18.3991 16.4695 18.1774 16.5614 17.9461 16.5614C17.7149 16.5614 17.4931 16.4695 17.3296 16.306C17.1661 16.1425 17.0742 15.9207 17.0742 15.6895ZM21.4337 16.5614C21.5482 16.5614 21.6616 16.5389 21.7674 16.495C21.8732 16.4512 21.9693 16.387 22.0503 16.306C22.1312 16.2251 22.1954 16.129 22.2393 16.0232C22.2831 15.9174 22.3056 15.804 22.3056 15.6895V12.2019C22.3056 11.9707 22.2138 11.7489 22.0502 11.5854C21.8867 11.4219 21.665 11.33 21.4337 11.33C21.2025 11.33 20.9807 11.4219 20.8172 11.5854C20.6537 11.7489 20.5618 11.9707 20.5618 12.2019V15.6895C20.5618 15.804 20.5844 15.9174 20.6282 16.0232C20.672 16.129 20.7362 16.2251 20.8172 16.306C20.8982 16.387 20.9943 16.4512 21.1001 16.495C21.2058 16.5389 21.3192 16.5614 21.4337 16.5614ZM24.9213 16.5614C25.0358 16.5614 25.1492 16.5389 25.255 16.495C25.3608 16.4512 25.4569 16.387 25.5378 16.306C25.6188 16.2251 25.683 16.129 25.7268 16.0232C25.7707 15.9174 25.7932 15.804 25.7932 15.6895V12.2019C25.7932 11.9707 25.7014 11.7489 25.5378 11.5854C25.3743 11.4219 25.1526 11.33 24.9213 11.33C24.6901 11.33 24.4683 11.4219 24.3048 11.5854C24.1413 11.7489 24.0494 11.9707 24.0494 12.2019V15.6895C24.0494 15.804 24.072 15.9174 24.1158 16.0232C24.1596 16.129 24.2238 16.2251 24.3048 16.306C24.3857 16.387 24.4819 16.4512 24.5876 16.495C24.6934 16.5389 24.8068 16.5614 24.9213 16.5614ZM35.3841 22.6647V23.5366C35.3827 24.6453 34.9594 25.7119 34.2002 26.5198C33.4409 27.3278 32.4027 27.8165 31.2962 27.8868C30.7002 29.5691 29.6866 31.0724 28.3505 32.2556H31.0246C31.2558 32.2556 31.4776 32.3474 31.6411 32.5109C31.8046 32.6745 31.8965 32.8962 31.8965 33.1275C31.8965 33.3587 31.8046 33.5805 31.6411 33.744C31.4776 33.9075 31.2558 33.9994 31.0246 33.9994H25.4467C25.4426 33.9994 25.4385 34 25.4344 34C25.4313 34 25.4283 33.9994 25.4252 33.9994H17.4185C17.4135 33.9993 17.4086 33.9995 17.4037 33.9994H11.8428C11.6116 33.9994 11.3898 33.9075 11.2263 33.744C11.0628 33.5805 10.9709 33.3587 10.9709 33.1275C10.9709 32.8962 11.0628 32.6745 11.2263 32.5109C11.3898 32.3474 11.6116 32.2556 11.8428 32.2556H14.517C13.4047 31.2726 12.5136 30.065 11.9023 28.7124C11.2911 27.3597 10.9736 25.8928 10.9709 24.4085V19.1771C10.9709 19.0626 10.9935 18.9492 11.0373 18.8434C11.0811 18.7376 11.1453 18.6415 11.2263 18.5606C11.3073 18.4796 11.4034 18.4154 11.5092 18.3716C11.615 18.3277 11.7283 18.3052 11.8428 18.3052H31.0246C32.1804 18.3065 33.2885 18.7662 34.1058 19.5835C34.9231 20.4008 35.3828 21.5089 35.3841 22.6647ZM30.1527 20.049H12.7147V24.4085C12.718 26.0455 13.1805 27.6487 14.0497 29.0359C14.9189 30.4231 16.1598 31.5386 17.6315 32.2556H25.236C26.3357 31.7196 27.3109 30.959 28.0986 30.0229C28.8864 29.0869 29.4691 27.9961 29.8093 26.8209C29.8149 26.7975 29.8211 26.7743 29.8286 26.7517C30.0432 25.9891 30.1522 25.2007 30.1527 24.4085V20.049ZM33.6403 22.6647C33.6396 22.124 33.4716 21.5967 33.1594 21.1553C32.8472 20.7138 32.4061 20.3798 31.8965 20.199V24.4085C31.896 24.9565 31.8522 25.5037 31.7654 26.0448C32.3063 25.8843 32.781 25.5536 33.1188 25.1016C33.4566 24.6497 33.6395 24.1008 33.6403 23.5366V22.6647Z" fill="#FCC436" stroke="#FCC436"/>
<path d="M13.3829 55.4639C13.3829 55.7249 13.3349 55.9919 13.2389 56.2649C13.1429 56.5379 12.9989 56.7914 12.8069 57.0254C12.6149 57.2564 12.3734 57.4439 12.0824 57.5879C11.7914 57.7289 11.4509 57.7994 11.0609 57.7994C10.5209 57.7994 10.0604 57.6554 9.67936 57.3674C9.29836 57.0794 9.00736 56.6789 8.80636 56.1659C8.60836 55.6529 8.50936 55.0634 8.50936 54.3974C8.50936 53.7284 8.60836 53.1389 8.80636 52.6289C9.00736 52.1189 9.29836 51.7214 9.67936 51.4364C10.0604 51.1484 10.5209 51.0044 11.0609 51.0044C11.5139 51.0044 11.8994 51.1004 12.2174 51.2924C12.5384 51.4814 12.7919 51.7229 12.9779 52.0169C13.1669 52.3109 13.2884 52.6124 13.3424 52.9214C13.3694 53.0624 13.3829 53.1974 13.3829 53.3264H12.8249C12.8249 53.2454 12.8174 53.1509 12.8024 53.0429C12.7634 52.7789 12.6704 52.5314 12.5234 52.3004C12.3794 52.0664 12.1844 51.8759 11.9384 51.7289C11.6954 51.5819 11.4029 51.5084 11.0609 51.5084C10.6619 51.5084 10.3139 51.6224 10.0169 51.8504C9.71986 52.0754 9.48886 52.4024 9.32386 52.8314C9.15886 53.2604 9.07636 53.7824 9.07636 54.3974C9.07636 55.0094 9.15886 55.5329 9.32386 55.9679C9.48886 56.3999 9.71986 56.7299 10.0169 56.9579C10.3139 57.1829 10.6619 57.2954 11.0609 57.2954C11.3459 57.2954 11.5979 57.2414 11.8169 57.1334C12.0359 57.0254 12.2204 56.8829 12.3704 56.7059C12.5204 56.5259 12.6329 56.3279 12.7079 56.1119C12.7859 55.8959 12.8249 55.6799 12.8249 55.4639H13.3829ZM16.8025 57.7949C16.3345 57.7949 15.9205 57.6884 15.5605 57.4754C15.2005 57.2594 14.9185 56.9639 14.7145 56.5889C14.5105 56.2139 14.4085 55.7909 14.4085 55.3199C14.4085 54.8459 14.5105 54.4244 14.7145 54.0554C14.9185 53.6864 15.2005 53.3969 15.5605 53.1869C15.9205 52.9769 16.3345 52.8719 16.8025 52.8719C17.2705 52.8719 17.6845 52.9769 18.0445 53.1869C18.4045 53.3969 18.6865 53.6864 18.8905 54.0554C19.0945 54.4244 19.1965 54.8459 19.1965 55.3199C19.1965 55.7909 19.0945 56.2139 18.8905 56.5889C18.6865 56.9639 18.4045 57.2594 18.0445 57.4754C17.6845 57.6884 17.2705 57.7949 16.8025 57.7949ZM16.8025 57.2864C17.1625 57.2864 17.479 57.2024 17.752 57.0344C18.028 56.8664 18.244 56.6339 18.4 56.3369C18.556 56.0399 18.634 55.7009 18.634 55.3199C18.634 54.9359 18.556 54.5984 18.4 54.3074C18.244 54.0164 18.028 53.7899 17.752 53.6279C17.479 53.4629 17.1625 53.3804 16.8025 53.3804C16.4455 53.3804 16.129 53.4629 15.853 53.6279C15.577 53.7899 15.361 54.0164 15.205 54.3074C15.049 54.5984 14.971 54.9359 14.971 55.3199C14.971 55.7009 15.049 56.0399 15.205 56.3369C15.361 56.6339 15.577 56.8664 15.853 57.0344C16.129 57.2024 16.4455 57.2864 16.8025 57.2864ZM22.6957 57.7994C22.2577 57.7994 21.8572 57.7019 21.4942 57.5069C21.1312 57.3089 20.8402 57.0254 20.6212 56.6564C20.4052 56.2874 20.2972 55.8434 20.2972 55.3244C20.2972 54.8054 20.4052 54.3629 20.6212 53.9969C20.8402 53.6309 21.1312 53.3519 21.4942 53.1599C21.8572 52.9649 22.2577 52.8674 22.6957 52.8674C23.0317 52.8674 23.3317 52.9199 23.5957 53.0249C23.8597 53.1269 24.0832 53.2634 24.2662 53.4344C24.4492 53.6024 24.5887 53.7869 24.6847 53.9879C24.7807 54.1889 24.8287 54.3869 24.8287 54.5819C24.8287 54.5849 24.8287 54.5894 24.8287 54.5954C24.8287 54.5984 24.8287 54.6029 24.8287 54.6089H24.2752C24.2752 54.5939 24.2737 54.5774 24.2707 54.5594C24.2707 54.5384 24.2692 54.5189 24.2662 54.5009C24.2392 54.2849 24.1537 54.0929 24.0097 53.9249C23.8657 53.7569 23.6812 53.6234 23.4562 53.5244C23.2312 53.4254 22.9762 53.3759 22.6912 53.3759C22.3702 53.3759 22.0702 53.4494 21.7912 53.5964C21.5152 53.7404 21.2917 53.9564 21.1207 54.2444C20.9497 54.5324 20.8642 54.8924 20.8642 55.3244C20.8642 55.7534 20.9482 56.1149 21.1162 56.4089C21.2872 56.6999 21.5107 56.9204 21.7867 57.0704C22.0657 57.2174 22.3672 57.2909 22.6912 57.2909C23.0452 57.2909 23.3377 57.2324 23.5687 57.1154C23.7997 56.9984 23.9737 56.8469 24.0907 56.6609C24.2077 56.4749 24.2692 56.2814 24.2752 56.0804H24.8287C24.8287 56.2814 24.7822 56.4839 24.6892 56.6879C24.5992 56.8919 24.4642 57.0779 24.2842 57.2459C24.1072 57.4139 23.8852 57.5489 23.6182 57.6509C23.3542 57.7499 23.0467 57.7994 22.6957 57.7994ZM28.325 57.7949C27.857 57.7949 27.443 57.6884 27.083 57.4754C26.723 57.2594 26.441 56.9639 26.237 56.5889C26.033 56.2139 25.931 55.7909 25.931 55.3199C25.931 54.8459 26.033 54.4244 26.237 54.0554C26.441 53.6864 26.723 53.3969 27.083 53.1869C27.443 52.9769 27.857 52.8719 28.325 52.8719C28.793 52.8719 29.207 52.9769 29.567 53.1869C29.927 53.3969 30.209 53.6864 30.413 54.0554C30.617 54.4244 30.719 54.8459 30.719 55.3199C30.719 55.7909 30.617 56.2139 30.413 56.5889C30.209 56.9639 29.927 57.2594 29.567 57.4754C29.207 57.6884 28.793 57.7949 28.325 57.7949ZM28.325 57.2864C28.685 57.2864 29.0015 57.2024 29.2745 57.0344C29.5505 56.8664 29.7665 56.6339 29.9225 56.3369C30.0785 56.0399 30.1565 55.7009 30.1565 55.3199C30.1565 54.9359 30.0785 54.5984 29.9225 54.3074C29.7665 54.0164 29.5505 53.7899 29.2745 53.6279C29.0015 53.4629 28.685 53.3804 28.325 53.3804C27.968 53.3804 27.6515 53.4629 27.3755 53.6279C27.0995 53.7899 26.8835 54.0164 26.7275 54.3074C26.5715 54.5984 26.4935 54.9359 26.4935 55.3199C26.4935 55.7009 26.5715 56.0399 26.7275 56.3369C26.8835 56.6339 27.0995 56.8664 27.3755 57.0344C27.6515 57.2024 27.968 57.2864 28.325 57.2864ZM33.6781 57.7994C33.3121 57.7994 32.9926 57.7439 32.7196 57.6329C32.4466 57.5219 32.2351 57.3614 32.0851 57.1514C31.9381 56.9384 31.8646 56.6819 31.8646 56.3819C31.8646 56.0789 31.9426 55.8269 32.0986 55.6259C32.2546 55.4219 32.4766 55.2629 32.7646 55.1489C33.0556 55.0349 33.3991 54.9584 33.7951 54.9194C34.4041 54.8564 34.8406 54.7934 35.1046 54.7304C35.3716 54.6644 35.5051 54.5594 35.5051 54.4154C35.5051 54.4064 35.5051 54.3974 35.5051 54.3884C35.5051 54.3764 35.5051 54.3644 35.5051 54.3524C35.5051 54.0434 35.3791 53.8034 35.1271 53.6324C34.8751 53.4614 34.5166 53.3759 34.0516 53.3759C33.5656 53.3759 33.1861 53.4719 32.9131 53.6639C32.6431 53.8559 32.5081 54.1409 32.5081 54.5189H31.9591C31.9591 54.1739 32.0461 53.8784 32.2201 53.6324C32.3941 53.3834 32.6386 53.1944 32.9536 53.0654C33.2686 52.9334 33.6361 52.8674 34.0561 52.8674C34.4341 52.8674 34.7746 52.9259 35.0776 53.0429C35.3806 53.1599 35.6206 53.3309 35.7976 53.5559C35.9776 53.7779 36.0676 54.0524 36.0676 54.3794C36.0676 54.4424 36.0676 54.5054 36.0676 54.5684C36.0676 54.6284 36.0676 54.6899 36.0676 54.7529V56.8679C36.0676 56.9699 36.0721 57.0674 36.0811 57.1604C36.0901 57.2534 36.1036 57.3344 36.1216 57.4034C36.1486 57.4904 36.1771 57.5594 36.2071 57.6104C36.2371 57.6614 36.2611 57.6959 36.2791 57.7139H35.7166C35.7046 57.7019 35.6851 57.6704 35.6581 57.6194C35.6311 57.5654 35.6041 57.5024 35.5771 57.4304C35.5531 57.3554 35.5366 57.2714 35.5276 57.1784C35.5186 57.0854 35.5141 56.9729 35.5141 56.8409L35.6041 56.9084C35.5081 57.0854 35.3686 57.2414 35.1856 57.3764C35.0026 57.5084 34.7836 57.6119 34.5286 57.6869C34.2736 57.7619 33.9901 57.7994 33.6781 57.7994ZM33.7636 57.2999C34.0876 57.2999 34.3801 57.2474 34.6411 57.1424C34.9051 57.0344 35.1151 56.8814 35.2711 56.6834C35.4271 56.4824 35.5051 56.2394 35.5051 55.9544V54.8384L35.6266 55.0454C35.4526 55.1324 35.2156 55.2029 34.9156 55.2569C34.6156 55.3079 34.2901 55.3499 33.9391 55.3829C33.4441 55.4309 33.0676 55.5254 32.8096 55.6664C32.5546 55.8074 32.4271 56.0369 32.4271 56.3549C32.4271 56.6609 32.5396 56.8949 32.7646 57.0569C32.9896 57.2189 33.3226 57.2999 33.7636 57.2999Z" fill="#797D86"/>
</svg>
