<svg width="46" height="60" viewBox="0 0 46 60" fill="none" xmlns="http://www.w3.org/2000/svg">
<rect x="0.905605" y="0.905605" width="43.469" height="43.469" rx="21.7345" stroke="#FCC436" stroke-width="1.81121"/>
<path d="M5.8687 57.7139V51.0764H7.3717C7.8097 51.0764 8.2042 51.1514 8.5552 51.3014C8.9062 51.4514 9.2062 51.6689 9.4552 51.9539C9.7042 52.2389 9.8947 52.5869 10.0267 52.9979C10.1617 53.4089 10.2292 53.8754 10.2292 54.3974C10.2292 54.9164 10.1617 55.3814 10.0267 55.7924C9.8947 56.2034 9.7042 56.5514 9.4552 56.8364C9.2062 57.1214 8.9062 57.3389 8.5552 57.4889C8.2042 57.6389 7.8097 57.7139 7.3717 57.7139H5.8687ZM6.4357 57.5339L6.1837 57.2234H7.3132C7.7812 57.2234 8.1907 57.1109 8.5417 56.8859C8.8957 56.6579 9.1702 56.3324 9.3652 55.9094C9.5632 55.4864 9.6622 54.9824 9.6622 54.3974C9.6622 53.8064 9.5632 53.3009 9.3652 52.8809C9.1702 52.4579 8.8957 52.1339 8.5417 51.9089C8.1907 51.6809 7.7812 51.5669 7.3132 51.5669H6.1837L6.4357 51.2564V57.5339ZM11.5772 55.5584V55.0589H15.4472L15.3392 55.2119C15.3392 55.1939 15.3392 55.1789 15.3392 55.1669C15.3392 55.1519 15.3392 55.1369 15.3392 55.1219C15.3392 54.8129 15.2732 54.5249 15.1412 54.2579C15.0092 53.9909 14.8172 53.7764 14.5652 53.6144C14.3162 53.4524 14.0117 53.3714 13.6517 53.3714C13.2857 53.3714 12.9632 53.4554 12.6842 53.6234C12.4052 53.7884 12.1877 54.0179 12.0317 54.3119C11.8757 54.6029 11.7977 54.9419 11.7977 55.3289C11.7977 55.7189 11.8742 56.0624 12.0272 56.3594C12.1832 56.6534 12.4007 56.8829 12.6797 57.0479C12.9587 57.2099 13.2842 57.2909 13.6562 57.2909C13.9292 57.2909 14.1662 57.2579 14.3672 57.1919C14.5712 57.1229 14.7392 57.0329 14.8712 56.9219C15.0062 56.8109 15.1082 56.6939 15.1772 56.5709C15.2492 56.4449 15.2912 56.3264 15.3032 56.2154H15.8567C15.8447 56.3924 15.7877 56.5739 15.6857 56.7599C15.5867 56.9429 15.4442 57.1139 15.2582 57.2729C15.0752 57.4319 14.8472 57.5609 14.5742 57.6599C14.3042 57.7559 13.9922 57.8039 13.6382 57.8039C13.1762 57.8039 12.7652 57.6989 12.4052 57.4889C12.0482 57.2789 11.7662 56.9894 11.5592 56.6204C11.3552 56.2484 11.2532 55.8209 11.2532 55.3379C11.2532 54.8519 11.3567 54.4244 11.5637 54.0554C11.7707 53.6834 12.0542 53.3924 12.4142 53.1824C12.7742 52.9724 13.1837 52.8674 13.6427 52.8674C14.1107 52.8674 14.5157 52.9739 14.8577 53.1869C15.1997 53.3999 15.4637 53.6894 15.6497 54.0554C15.8357 54.4184 15.9287 54.8264 15.9287 55.2794C15.9287 55.3184 15.9272 55.3679 15.9242 55.4279C15.9242 55.4879 15.9227 55.5314 15.9197 55.5584H11.5772ZM18.9761 57.7994C18.6881 57.7994 18.4256 57.7694 18.1886 57.7094C17.9516 57.6494 17.7476 57.5624 17.5766 57.4484C17.4056 57.3314 17.2721 57.1904 17.1761 57.0254C17.0831 56.8574 17.0351 56.6654 17.0321 56.4494C17.0291 56.4224 17.0276 56.3954 17.0276 56.3684C17.0276 56.3384 17.0276 56.3129 17.0276 56.2919H17.5901C17.5901 56.3129 17.5901 56.3339 17.5901 56.3549C17.5901 56.3729 17.5901 56.3969 17.5901 56.4269C17.5991 56.7029 17.7251 56.9174 17.9681 57.0704C18.2141 57.2204 18.5531 57.2954 18.9851 57.2954C19.2611 57.2954 19.5026 57.2654 19.7096 57.2054C19.9196 57.1424 20.0846 57.0509 20.2046 56.9309C20.3246 56.8079 20.3846 56.6594 20.3846 56.4854C20.3846 56.1944 20.2586 55.9874 20.0066 55.8644C19.7576 55.7384 19.3901 55.6334 18.9041 55.5494C18.6521 55.5074 18.4166 55.4534 18.1976 55.3874C17.9816 55.3184 17.7911 55.2329 17.6261 55.1309C17.4641 55.0259 17.3366 54.8954 17.2436 54.7394C17.1506 54.5834 17.1041 54.3959 17.1041 54.1769C17.1041 53.8979 17.1881 53.6609 17.3561 53.4659C17.5241 53.2709 17.7491 53.1224 18.0311 53.0204C18.3161 52.9184 18.6296 52.8674 18.9716 52.8674C19.3106 52.8674 19.6211 52.9199 19.9031 53.0249C20.1881 53.1269 20.4161 53.2799 20.5871 53.4839C20.7581 53.6879 20.8436 53.9459 20.8436 54.2579C20.8436 54.2699 20.8436 54.2849 20.8436 54.3029C20.8436 54.3209 20.8436 54.3389 20.8436 54.3569H20.2856C20.2856 54.3419 20.2856 54.3284 20.2856 54.3164C20.2856 54.3014 20.2856 54.2879 20.2856 54.2759C20.2856 54.0569 20.2241 53.8814 20.1011 53.7494C19.9781 53.6174 19.8176 53.5214 19.6196 53.4614C19.4216 53.3984 19.2101 53.3669 18.9851 53.3669C18.7631 53.3669 18.5501 53.3939 18.3461 53.4479C18.1421 53.5019 17.9756 53.5874 17.8466 53.7044C17.7206 53.8184 17.6576 53.9699 17.6576 54.1589C17.6576 54.3479 17.7176 54.5009 17.8376 54.6179C17.9576 54.7319 18.1271 54.8249 18.3461 54.8969C18.5651 54.9659 18.8201 55.0274 19.1111 55.0814C19.3781 55.1294 19.6226 55.1879 19.8446 55.2569C20.0666 55.3229 20.2586 55.4069 20.4206 55.5089C20.5826 55.6109 20.7086 55.7399 20.7986 55.8959C20.8886 56.0489 20.9336 56.2364 20.9336 56.4584C20.9336 56.6774 20.8841 56.8709 20.7851 57.0389C20.6861 57.2039 20.5466 57.3434 20.3666 57.4574C20.1896 57.5714 19.9826 57.6569 19.7456 57.7139C19.5086 57.7709 19.2521 57.7994 18.9761 57.7994ZM23.9771 57.7994C23.6891 57.7994 23.4266 57.7694 23.1896 57.7094C22.9526 57.6494 22.7486 57.5624 22.5776 57.4484C22.4066 57.3314 22.2731 57.1904 22.1771 57.0254C22.0841 56.8574 22.0361 56.6654 22.0331 56.4494C22.0301 56.4224 22.0286 56.3954 22.0286 56.3684C22.0286 56.3384 22.0286 56.3129 22.0286 56.2919H22.5911C22.5911 56.3129 22.5911 56.3339 22.5911 56.3549C22.5911 56.3729 22.5911 56.3969 22.5911 56.4269C22.6001 56.7029 22.7261 56.9174 22.9691 57.0704C23.2151 57.2204 23.5541 57.2954 23.9861 57.2954C24.2621 57.2954 24.5036 57.2654 24.7106 57.2054C24.9206 57.1424 25.0856 57.0509 25.2056 56.9309C25.3256 56.8079 25.3856 56.6594 25.3856 56.4854C25.3856 56.1944 25.2596 55.9874 25.0076 55.8644C24.7586 55.7384 24.3911 55.6334 23.9051 55.5494C23.6531 55.5074 23.4176 55.4534 23.1986 55.3874C22.9826 55.3184 22.7921 55.2329 22.6271 55.1309C22.4651 55.0259 22.3376 54.8954 22.2446 54.7394C22.1516 54.5834 22.1051 54.3959 22.1051 54.1769C22.1051 53.8979 22.1891 53.6609 22.3571 53.4659C22.5251 53.2709 22.7501 53.1224 23.0321 53.0204C23.3171 52.9184 23.6306 52.8674 23.9726 52.8674C24.3116 52.8674 24.6221 52.9199 24.9041 53.0249C25.1891 53.1269 25.4171 53.2799 25.5881 53.4839C25.7591 53.6879 25.8446 53.9459 25.8446 54.2579C25.8446 54.2699 25.8446 54.2849 25.8446 54.3029C25.8446 54.3209 25.8446 54.3389 25.8446 54.3569H25.2866C25.2866 54.3419 25.2866 54.3284 25.2866 54.3164C25.2866 54.3014 25.2866 54.2879 25.2866 54.2759C25.2866 54.0569 25.2251 53.8814 25.1021 53.7494C24.9791 53.6174 24.8186 53.5214 24.6206 53.4614C24.4226 53.3984 24.2111 53.3669 23.9861 53.3669C23.7641 53.3669 23.5511 53.3939 23.3471 53.4479C23.1431 53.5019 22.9766 53.5874 22.8476 53.7044C22.7216 53.8184 22.6586 53.9699 22.6586 54.1589C22.6586 54.3479 22.7186 54.5009 22.8386 54.6179C22.9586 54.7319 23.1281 54.8249 23.3471 54.8969C23.5661 54.9659 23.8211 55.0274 24.1121 55.0814C24.3791 55.1294 24.6236 55.1879 24.8456 55.2569C25.0676 55.3229 25.2596 55.4069 25.4216 55.5089C25.5836 55.6109 25.7096 55.7399 25.7996 55.8959C25.8896 56.0489 25.9346 56.2364 25.9346 56.4584C25.9346 56.6774 25.8851 56.8709 25.7861 57.0389C25.6871 57.2039 25.5476 57.3434 25.3676 57.4574C25.1906 57.5714 24.9836 57.6569 24.7466 57.7139C24.5096 57.7709 24.2531 57.7994 23.9771 57.7994ZM27.3536 55.5584V55.0589H31.2236L31.1156 55.2119C31.1156 55.1939 31.1156 55.1789 31.1156 55.1669C31.1156 55.1519 31.1156 55.1369 31.1156 55.1219C31.1156 54.8129 31.0496 54.5249 30.9176 54.2579C30.7856 53.9909 30.5936 53.7764 30.3416 53.6144C30.0926 53.4524 29.7881 53.3714 29.4281 53.3714C29.0621 53.3714 28.7396 53.4554 28.4606 53.6234C28.1816 53.7884 27.9641 54.0179 27.8081 54.3119C27.6521 54.6029 27.5741 54.9419 27.5741 55.3289C27.5741 55.7189 27.6506 56.0624 27.8036 56.3594C27.9596 56.6534 28.1771 56.8829 28.4561 57.0479C28.7351 57.2099 29.0606 57.2909 29.4326 57.2909C29.7056 57.2909 29.9426 57.2579 30.1436 57.1919C30.3476 57.1229 30.5156 57.0329 30.6476 56.9219C30.7826 56.8109 30.8846 56.6939 30.9536 56.5709C31.0256 56.4449 31.0676 56.3264 31.0796 56.2154H31.6331C31.6211 56.3924 31.5641 56.5739 31.4621 56.7599C31.3631 56.9429 31.2206 57.1139 31.0346 57.2729C30.8516 57.4319 30.6236 57.5609 30.3506 57.6599C30.0806 57.7559 29.7686 57.8039 29.4146 57.8039C28.9526 57.8039 28.5416 57.6989 28.1816 57.4889C27.8246 57.2789 27.5426 56.9894 27.3356 56.6204C27.1316 56.2484 27.0296 55.8209 27.0296 55.3379C27.0296 54.8519 27.1331 54.4244 27.3401 54.0554C27.5471 53.6834 27.8306 53.3924 28.1906 53.1824C28.5506 52.9724 28.9601 52.8674 29.4191 52.8674C29.8871 52.8674 30.2921 52.9739 30.6341 53.1869C30.9761 53.3999 31.2401 53.6894 31.4261 54.0554C31.6121 54.4184 31.7051 54.8264 31.7051 55.2794C31.7051 55.3184 31.7036 55.3679 31.7006 55.4279C31.7006 55.4879 31.6991 55.5314 31.6961 55.5584H27.3536ZM33.02 57.7139V52.9349H33.578V54.3434L33.38 54.2804C33.398 54.1304 33.4415 53.9744 33.5105 53.8124C33.5825 53.6474 33.6815 53.4929 33.8075 53.3489C33.9335 53.2049 34.091 53.0894 34.28 53.0024C34.472 52.9124 34.7 52.8674 34.964 52.8674C35.156 52.8674 35.3105 52.8839 35.4275 52.9169C35.5445 52.9499 35.618 52.9754 35.648 52.9934L35.495 53.5334C35.465 53.5124 35.4035 53.4854 35.3105 53.4524C35.2175 53.4194 35.084 53.4029 34.91 53.4029C34.658 53.4029 34.4465 53.4524 34.2755 53.5514C34.1045 53.6474 33.968 53.7734 33.866 53.9294C33.764 54.0854 33.6905 54.2519 33.6455 54.4289C33.6005 54.6029 33.578 54.7709 33.578 54.9329V57.7139H33.02ZM38.2448 57.7859C38.1098 57.7859 37.9778 57.7694 37.8488 57.7364C37.7228 57.7034 37.6088 57.6449 37.5068 57.5609C37.4078 57.4739 37.3298 57.3554 37.2728 57.2054C37.2158 57.0554 37.1873 56.8649 37.1873 56.6339C37.1873 56.5709 37.1873 56.5064 37.1873 56.4404C37.1873 56.3714 37.1873 56.2994 37.1873 56.2244V53.4254H36.0353V52.9349H36.8633C36.9413 52.9349 37.0028 52.9319 37.0478 52.9259C37.0928 52.9199 37.1243 52.9049 37.1423 52.8809C37.1633 52.8569 37.1753 52.8194 37.1783 52.7684C37.1843 52.7174 37.1873 52.6469 37.1873 52.5569V51.3914H37.7453V52.9349H39.2753V53.4254H37.7453V56.0399C37.7453 56.1119 37.7453 56.1809 37.7453 56.2469C37.7453 56.3129 37.7453 56.3744 37.7453 56.4314C37.7453 56.7014 37.7843 56.9129 37.8623 57.0659C37.9433 57.2189 38.0948 57.2954 38.3168 57.2954C38.4008 57.2954 38.4833 57.2879 38.5643 57.2729C38.6453 57.2579 38.7068 57.2414 38.7488 57.2234V57.7094C38.6978 57.7304 38.6273 57.7484 38.5373 57.7634C38.4473 57.7784 38.3498 57.7859 38.2448 57.7859Z" fill="#797D86"/>
<path d="M35.212 18.0158V30.641C35.212 31.0912 34.8473 31.4555 34.3975 31.4555H10.7762C10.3264 31.4555 9.96167 31.0912 9.96167 30.641V18.0158C9.96167 17.5664 10.3264 17.2013 10.7762 17.2013L24.6216 14.9864" stroke="#FCC436" stroke-width="2.71681" stroke-miterlimit="10" stroke-linecap="round" stroke-linejoin="round"/>
<path d="M31.5542 13.9641C33.6084 14.1719 35.212 15.9071 35.212 18.0158" stroke="#FCC436" stroke-width="2.71681" stroke-miterlimit="10" stroke-linecap="round" stroke-linejoin="round"/>
<path d="M9.96168 17.6593L10.3689 22.903C11.4937 22.903 12.4053 21.9914 12.4053 20.8671C12.4053 19.7423 13.3168 18.8304 14.4416 18.8304C15.5663 18.8304 16.4779 19.7423 16.4779 20.8671C16.4779 21.9914 17.3895 22.903 18.5142 22.903C19.6389 22.903 20.5505 21.9914 20.5505 20.8671C20.5505 19.7423 21.4621 18.8304 22.5868 18.8304C23.7116 18.8304 24.6232 19.7423 24.6232 20.8671C24.6232 21.9914 25.5347 22.903 26.6595 22.903C27.7842 22.903 28.6958 21.9914 28.6958 20.8671C28.6958 19.7423 29.6074 18.8304 30.7321 18.8304C31.8568 18.8304 32.7684 19.7423 32.7684 20.8671C32.7684 21.9914 33.68 22.903 34.8047 22.903L34.413 14.4897" fill="#FCC436"/>
<path d="M9.96167 26.8845H35.212" stroke="#FCC436" stroke-width="2.71681" stroke-miterlimit="10" stroke-linecap="round" stroke-linejoin="round"/>
<path d="M28.0849 17.3381C29.9598 17.3381 31.4796 15.8183 31.4796 13.9434C31.4796 12.0686 29.9598 10.5487 28.0849 10.5487C26.21 10.5487 24.6902 12.0686 24.6902 13.9434C24.6902 15.8183 26.21 17.3381 28.0849 17.3381Z" fill="white" stroke="#FCC436" stroke-width="2.71681" stroke-miterlimit="10" stroke-linecap="round" stroke-linejoin="round"/>
<path d="M28.0848 13.1287C28.0848 10.8794 29.908 9.05605 32.1575 9.05605" stroke="#FCC436" stroke-width="1.81121" stroke-miterlimit="10" stroke-linecap="round" stroke-linejoin="round"/>
</svg>
