<svg width="46" height="69" viewBox="0 0 46 69" fill="none" xmlns="http://www.w3.org/2000/svg">
<rect x="0.905605" y="0.905605" width="43.469" height="43.469" rx="21.7345" stroke="#FCC436" stroke-width="1.81121"/>
<path d="M16.8972 10C16.4017 10 16 10.4017 16 10.8972V19.8691C16 23.5298 18.7406 26.5504 22.282 26.9913C22.2809 27.0096 22.2803 27.0279 22.2803 27.0466V33.3269H19.5887C19.0933 33.3269 18.6916 33.7286 18.6916 34.2241C18.6916 34.7195 19.0933 35.1213 19.5887 35.1213H26.7662C27.2617 35.1213 27.6634 34.7195 27.6634 34.2241C27.6634 33.7286 27.2617 33.3269 26.7662 33.3269H24.0747V27.0466C24.0747 27.0279 24.0741 27.0096 24.073 26.9913C27.6145 26.5504 30.355 23.5298 30.355 19.8691V10.8972C30.355 10.4017 29.9532 10 29.4578 10H16.8972ZM17.7944 15.3831V11.7944H28.5606V15.3831H17.7944ZM28.0819 19.5159C27.967 20.5516 27.5272 21.5244 26.8255 22.2947C26.1238 23.0651 25.1962 23.5936 24.1756 23.8044C23.6904 23.9046 23.2158 23.5925 23.1155 23.1072C23.0153 22.6219 23.3274 22.1473 23.8127 22.0471C24.4621 21.9129 25.0524 21.5766 25.499 21.0864C25.9455 20.5962 26.2254 19.9771 26.2985 19.318C26.3531 18.8256 26.7968 18.4706 27.2891 18.5253C27.7817 18.5799 28.1366 19.0234 28.0819 19.5159Z" fill="#FCC436"/>
<path d="M7.36685 58.0855C6.98885 58.0855 6.64235 58.009 6.32735 57.856C6.01235 57.7 5.73785 57.4765 5.50385 57.1855C5.27285 56.8915 5.09285 56.533 4.96385 56.11C4.83785 55.687 4.77485 55.2085 4.77485 54.6745C4.77485 54.1375 4.83785 53.6605 4.96385 53.2435C5.09285 52.8235 5.27285 52.468 5.50385 52.177C5.73785 51.886 6.01235 51.6655 6.32735 51.5155C6.64535 51.3655 6.99185 51.2905 7.36685 51.2905C7.74485 51.2905 8.09135 51.3655 8.40635 51.5155C8.72435 51.6655 8.99885 51.886 9.22985 52.177C9.46385 52.468 9.64385 52.8235 9.76985 53.2435C9.89885 53.6605 9.96335 54.1375 9.96335 54.6745C9.96335 55.2085 9.89885 55.687 9.76985 56.11C9.64385 56.533 9.46385 56.8915 9.22985 57.1855C8.99885 57.4765 8.72435 57.7 8.40635 57.856C8.09135 58.009 7.74485 58.0855 7.36685 58.0855ZM7.36685 57.5815C7.76585 57.5815 8.11685 57.469 8.41985 57.244C8.72585 57.019 8.96435 56.6905 9.13535 56.2585C9.30935 55.8265 9.39635 55.2985 9.39635 54.6745C9.39635 54.0475 9.30935 53.521 9.13535 53.095C8.96135 52.666 8.72135 52.342 8.41535 52.123C8.11235 51.904 7.76285 51.7945 7.36685 51.7945C6.97385 51.7945 6.62435 51.904 6.31835 52.123C6.01235 52.342 5.77235 52.666 5.59835 53.095C5.42435 53.521 5.33735 54.0475 5.33735 54.6745C5.33735 55.3015 5.42435 55.831 5.59835 56.263C5.77235 56.695 6.01235 57.0235 6.31835 57.2485C6.62435 57.4705 6.97385 57.5815 7.36685 57.5815ZM11.2064 58V53.221H11.7644V54.6295L11.5664 54.5665C11.5844 54.4165 11.6279 54.2605 11.6969 54.0985C11.7689 53.9335 11.8679 53.779 11.9939 53.635C12.1199 53.491 12.2774 53.3755 12.4664 53.2885C12.6584 53.1985 12.8864 53.1535 13.1504 53.1535C13.3424 53.1535 13.4969 53.17 13.6139 53.203C13.7309 53.236 13.8044 53.2615 13.8344 53.2795L13.6814 53.8195C13.6514 53.7985 13.5899 53.7715 13.4969 53.7385C13.4039 53.7055 13.2704 53.689 13.0964 53.689C12.8444 53.689 12.6329 53.7385 12.4619 53.8375C12.2909 53.9335 12.1544 54.0595 12.0524 54.2155C11.9504 54.3715 11.8769 54.538 11.8319 54.715C11.7869 54.889 11.7644 55.057 11.7644 55.219V58H11.2064ZM16.5237 58.0855C16.1337 58.0855 15.7797 57.991 15.4617 57.802C15.1467 57.61 14.8962 57.3295 14.7102 56.9605C14.5272 56.5915 14.4357 56.1415 14.4357 55.6105C14.4357 55.0855 14.5287 54.64 14.7147 54.274C14.9037 53.908 15.1557 53.6305 15.4707 53.4415C15.7857 53.2495 16.1367 53.1535 16.5237 53.1535C16.8897 53.1535 17.2287 53.2405 17.5407 53.4145C17.8557 53.5855 18.1077 53.821 18.2967 54.121C18.4857 54.421 18.5802 54.76 18.5802 55.138C18.5802 55.15 18.5802 55.162 18.5802 55.174C18.5802 55.183 18.5802 55.192 18.5802 55.201L18.1707 55.21C18.1707 55.201 18.1707 55.192 18.1707 55.183C18.1707 55.171 18.1707 55.1605 18.1707 55.1515C18.1707 54.8785 18.0972 54.6295 17.9502 54.4045C17.8032 54.1795 17.6097 53.9995 17.3697 53.8645C17.1327 53.7295 16.8747 53.662 16.5957 53.662C16.1337 53.662 15.7527 53.8255 15.4527 54.1525C15.1557 54.4795 15.0072 54.9655 15.0072 55.6105C15.0072 56.2525 15.1557 56.7385 15.4527 57.0685C15.7527 57.3955 16.1337 57.559 16.5957 57.559C16.8807 57.559 17.1417 57.4915 17.3787 57.3565C17.6187 57.2185 17.8107 57.034 17.9547 56.803C18.0987 56.572 18.1707 56.314 18.1707 56.029L18.5802 56.038C18.5802 56.425 18.4872 56.773 18.3012 57.082C18.1152 57.391 17.8662 57.6355 17.5542 57.8155C17.2452 57.9955 16.9017 58.0855 16.5237 58.0855ZM18.1707 58V50.9665H18.7287V58H18.1707ZM20.2557 58V53.221H20.8047V58H20.2557ZM20.5347 52.015C20.4177 52.015 20.3172 51.982 20.2332 51.916C20.1492 51.847 20.1072 51.7555 20.1072 51.6415C20.1072 51.5305 20.1492 51.442 20.2332 51.376C20.3172 51.307 20.4177 51.2725 20.5347 51.2725C20.6487 51.2725 20.7477 51.307 20.8317 51.376C20.9157 51.442 20.9577 51.5305 20.9577 51.6415C20.9577 51.7555 20.9157 51.847 20.8317 51.916C20.7477 51.982 20.6487 52.015 20.5347 52.015ZM25.8153 58V55.624C25.8153 55.477 25.8153 55.36 25.8153 55.273C25.8153 55.186 25.8153 55.1005 25.8153 55.0165C25.8153 54.7495 25.7673 54.517 25.6713 54.319C25.5783 54.118 25.4343 53.962 25.2393 53.851C25.0443 53.737 24.7938 53.68 24.4878 53.68C24.2178 53.68 23.9643 53.7475 23.7273 53.8825C23.4903 54.0145 23.2983 54.1945 23.1513 54.4225C23.0073 54.6505 22.9353 54.907 22.9353 55.192L22.5978 55.066C22.5978 54.703 22.6908 54.3775 22.8768 54.0895C23.0658 53.8015 23.3118 53.5735 23.6148 53.4055C23.9208 53.2375 24.2448 53.1535 24.5868 53.1535C24.9498 53.1535 25.2648 53.2225 25.5318 53.3605C25.7988 53.4955 26.0043 53.692 26.1483 53.95C26.2953 54.205 26.3688 54.5155 26.3688 54.8815C26.3688 55.0075 26.3688 55.1425 26.3688 55.2865C26.3688 55.4305 26.3688 55.561 26.3688 55.678V58H25.8153ZM22.3773 58V53.221H22.9353V58H22.3773ZM29.4954 58.0855C29.1294 58.0855 28.8099 58.03 28.5369 57.919C28.2639 57.808 28.0524 57.6475 27.9024 57.4375C27.7554 57.2245 27.6819 56.968 27.6819 56.668C27.6819 56.365 27.7599 56.113 27.9159 55.912C28.0719 55.708 28.2939 55.549 28.5819 55.435C28.8729 55.321 29.2164 55.2445 29.6124 55.2055C30.2214 55.1425 30.6579 55.0795 30.9219 55.0165C31.1889 54.9505 31.3224 54.8455 31.3224 54.7015C31.3224 54.6925 31.3224 54.6835 31.3224 54.6745C31.3224 54.6625 31.3224 54.6505 31.3224 54.6385C31.3224 54.3295 31.1964 54.0895 30.9444 53.9185C30.6924 53.7475 30.3339 53.662 29.8689 53.662C29.3829 53.662 29.0034 53.758 28.7304 53.95C28.4604 54.142 28.3254 54.427 28.3254 54.805H27.7764C27.7764 54.46 27.8634 54.1645 28.0374 53.9185C28.2114 53.6695 28.4559 53.4805 28.7709 53.3515C29.0859 53.2195 29.4534 53.1535 29.8734 53.1535C30.2514 53.1535 30.5919 53.212 30.8949 53.329C31.1979 53.446 31.4379 53.617 31.6149 53.842C31.7949 54.064 31.8849 54.3385 31.8849 54.6655C31.8849 54.7285 31.8849 54.7915 31.8849 54.8545C31.8849 54.9145 31.8849 54.976 31.8849 55.039V57.154C31.8849 57.256 31.8894 57.3535 31.8984 57.4465C31.9074 57.5395 31.9209 57.6205 31.9389 57.6895C31.9659 57.7765 31.9944 57.8455 32.0244 57.8965C32.0544 57.9475 32.0784 57.982 32.0964 58H31.5339C31.5219 57.988 31.5024 57.9565 31.4754 57.9055C31.4484 57.8515 31.4214 57.7885 31.3944 57.7165C31.3704 57.6415 31.3539 57.5575 31.3449 57.4645C31.3359 57.3715 31.3314 57.259 31.3314 57.127L31.4214 57.1945C31.3254 57.3715 31.1859 57.5275 31.0029 57.6625C30.8199 57.7945 30.6009 57.898 30.3459 57.973C30.0909 58.048 29.8074 58.0855 29.4954 58.0855ZM29.5809 57.586C29.9049 57.586 30.1974 57.5335 30.4584 57.4285C30.7224 57.3205 30.9324 57.1675 31.0884 56.9695C31.2444 56.7685 31.3224 56.5255 31.3224 56.2405V55.1245L31.4439 55.3315C31.2699 55.4185 31.0329 55.489 30.7329 55.543C30.4329 55.594 30.1074 55.636 29.7564 55.669C29.2614 55.717 28.8849 55.8115 28.6269 55.9525C28.3719 56.0935 28.2444 56.323 28.2444 56.641C28.2444 56.947 28.3569 57.181 28.5819 57.343C28.8069 57.505 29.1399 57.586 29.5809 57.586ZM33.3021 58V53.221H33.8601V54.6295L33.6621 54.5665C33.6801 54.4165 33.7236 54.2605 33.7926 54.0985C33.8646 53.9335 33.9636 53.779 34.0896 53.635C34.2156 53.491 34.3731 53.3755 34.5621 53.2885C34.7541 53.1985 34.9821 53.1535 35.2461 53.1535C35.4381 53.1535 35.5926 53.17 35.7096 53.203C35.8266 53.236 35.9001 53.2615 35.9301 53.2795L35.7771 53.8195C35.7471 53.7985 35.6856 53.7715 35.5926 53.7385C35.4996 53.7055 35.3661 53.689 35.1921 53.689C34.9401 53.689 34.7286 53.7385 34.5576 53.8375C34.3866 53.9335 34.2501 54.0595 34.1481 54.2155C34.0461 54.3715 33.9726 54.538 33.9276 54.715C33.8826 54.889 33.8601 55.057 33.8601 55.219V58H33.3021ZM36.8889 59.998C36.7779 59.998 36.6759 59.9905 36.5829 59.9755C36.4929 59.9635 36.4359 59.9515 36.4119 59.9395V59.449C36.4509 59.467 36.5139 59.482 36.6009 59.494C36.6909 59.509 36.7764 59.5165 36.8574 59.5165C37.0644 59.5165 37.2354 59.4685 37.3704 59.3725C37.5084 59.2795 37.6224 59.155 37.7124 58.999C37.8024 58.843 37.8789 58.675 37.9419 58.495L38.1084 58.0135L36.4299 53.221H37.0149L38.4549 57.5005H38.3739L39.7959 53.221H40.3674L38.5494 58.468C38.4594 58.729 38.3514 58.9765 38.2254 59.2105C38.0994 59.4445 37.9314 59.6335 37.7214 59.7775C37.5114 59.9245 37.2339 59.998 36.8889 59.998ZM12.5053 67V60.3625H14.0083C14.4463 60.3625 14.8408 60.4375 15.1918 60.5875C15.5428 60.7375 15.8428 60.955 16.0918 61.24C16.3408 61.525 16.5313 61.873 16.6633 62.284C16.7983 62.695 16.8658 63.1615 16.8658 63.6835C16.8658 64.2025 16.7983 64.6675 16.6633 65.0785C16.5313 65.4895 16.3408 65.8375 16.0918 66.1225C15.8428 66.4075 15.5428 66.625 15.1918 66.775C14.8408 66.925 14.4463 67 14.0083 67H12.5053ZM13.0723 66.82L12.8203 66.5095H13.9498C14.4178 66.5095 14.8273 66.397 15.1783 66.172C15.5323 65.944 15.8068 65.6185 16.0018 65.1955C16.1998 64.7725 16.2988 64.2685 16.2988 63.6835C16.2988 63.0925 16.1998 62.587 16.0018 62.167C15.8068 61.744 15.5323 61.42 15.1783 61.195C14.8273 60.967 14.4178 60.853 13.9498 60.853H12.8203L13.0723 60.5425V66.82ZM18.1058 67V62.221H18.6638V63.6295L18.4658 63.5665C18.4838 63.4165 18.5273 63.2605 18.5963 63.0985C18.6683 62.9335 18.7673 62.779 18.8933 62.635C19.0193 62.491 19.1768 62.3755 19.3658 62.2885C19.5578 62.1985 19.7858 62.1535 20.0498 62.1535C20.2418 62.1535 20.3963 62.17 20.5133 62.203C20.6303 62.236 20.7038 62.2615 20.7338 62.2795L20.5808 62.8195C20.5508 62.7985 20.4893 62.7715 20.3963 62.7385C20.3033 62.7055 20.1698 62.689 19.9958 62.689C19.7438 62.689 19.5323 62.7385 19.3613 62.8375C19.1903 62.9335 19.0538 63.0595 18.9518 63.2155C18.8498 63.3715 18.7763 63.538 18.7313 63.715C18.6863 63.889 18.6638 64.057 18.6638 64.219V67H18.1058ZM21.6971 67V62.221H22.2461V67H21.6971ZM21.9761 61.015C21.8591 61.015 21.7586 60.982 21.6746 60.916C21.5906 60.847 21.5486 60.7555 21.5486 60.6415C21.5486 60.5305 21.5906 60.442 21.6746 60.376C21.7586 60.307 21.8591 60.2725 21.9761 60.2725C22.0901 60.2725 22.1891 60.307 22.2731 60.376C22.3571 60.442 22.3991 60.5305 22.3991 60.6415C22.3991 60.7555 22.3571 60.847 22.2731 60.916C22.1891 60.982 22.0901 61.015 21.9761 61.015ZM27.2567 67V64.624C27.2567 64.477 27.2567 64.36 27.2567 64.273C27.2567 64.186 27.2567 64.1005 27.2567 64.0165C27.2567 63.7495 27.2087 63.517 27.1127 63.319C27.0197 63.118 26.8757 62.962 26.6807 62.851C26.4857 62.737 26.2352 62.68 25.9292 62.68C25.6592 62.68 25.4057 62.7475 25.1687 62.8825C24.9317 63.0145 24.7397 63.1945 24.5927 63.4225C24.4487 63.6505 24.3767 63.907 24.3767 64.192L24.0392 64.066C24.0392 63.703 24.1322 63.3775 24.3182 63.0895C24.5072 62.8015 24.7532 62.5735 25.0562 62.4055C25.3622 62.2375 25.6862 62.1535 26.0282 62.1535C26.3912 62.1535 26.7062 62.2225 26.9732 62.3605C27.2402 62.4955 27.4457 62.692 27.5897 62.95C27.7367 63.205 27.8102 63.5155 27.8102 63.8815C27.8102 64.0075 27.8102 64.1425 27.8102 64.2865C27.8102 64.4305 27.8102 64.561 27.8102 64.678V67H27.2567ZM23.8187 67V62.221H24.3767V67H23.8187ZM29.2943 67V59.9665H29.8253V64.372L29.6678 64.3045L32.1473 62.221H32.8718L30.5498 64.2145L30.6848 63.9175L32.9123 67H32.3048L30.3113 64.219L30.4553 64.3L29.7353 64.9075L29.8253 64.6285V67H29.2943Z" fill="#797D86"/>
</svg>
