<svg width="46" height="60" viewBox="0 0 46 60" fill="none" xmlns="http://www.w3.org/2000/svg">
<rect x="0.905605" y="0.905605" width="43.469" height="43.469" rx="21.7345" stroke="#FCC436" stroke-width="1.81121"/>
<path d="M11.6978 57.7139V51.0764H12.2558V57.5339L12.0038 57.2234H14.9288V57.7139H11.6978ZM17.7719 57.7994C17.4059 57.7994 17.0864 57.7439 16.8134 57.6329C16.5404 57.5219 16.3289 57.3614 16.1789 57.1514C16.0319 56.9384 15.9584 56.6819 15.9584 56.3819C15.9584 56.0789 16.0364 55.8269 16.1924 55.6259C16.3484 55.4219 16.5704 55.2629 16.8584 55.1489C17.1494 55.0349 17.4929 54.9584 17.8889 54.9194C18.4979 54.8564 18.9344 54.7934 19.1984 54.7304C19.4654 54.6644 19.5989 54.5594 19.5989 54.4154C19.5989 54.4064 19.5989 54.3974 19.5989 54.3884C19.5989 54.3764 19.5989 54.3644 19.5989 54.3524C19.5989 54.0434 19.4729 53.8034 19.2209 53.6324C18.9689 53.4614 18.6104 53.3759 18.1454 53.3759C17.6594 53.3759 17.2799 53.4719 17.0069 53.6639C16.7369 53.8559 16.6019 54.1409 16.6019 54.5189H16.0529C16.0529 54.1739 16.1399 53.8784 16.3139 53.6324C16.4879 53.3834 16.7324 53.1944 17.0474 53.0654C17.3624 52.9334 17.7299 52.8674 18.1499 52.8674C18.5279 52.8674 18.8684 52.9259 19.1714 53.0429C19.4744 53.1599 19.7144 53.3309 19.8914 53.5559C20.0714 53.7779 20.1614 54.0524 20.1614 54.3794C20.1614 54.4424 20.1614 54.5054 20.1614 54.5684C20.1614 54.6284 20.1614 54.6899 20.1614 54.7529V56.8679C20.1614 56.9699 20.1659 57.0674 20.1749 57.1604C20.1839 57.2534 20.1974 57.3344 20.2154 57.4034C20.2424 57.4904 20.2709 57.5594 20.3009 57.6104C20.3309 57.6614 20.3549 57.6959 20.3729 57.7139H19.8104C19.7984 57.7019 19.7789 57.6704 19.7519 57.6194C19.7249 57.5654 19.6979 57.5024 19.6709 57.4304C19.6469 57.3554 19.6304 57.2714 19.6214 57.1784C19.6124 57.0854 19.6079 56.9729 19.6079 56.8409L19.6979 56.9084C19.6019 57.0854 19.4624 57.2414 19.2794 57.3764C19.0964 57.5084 18.8774 57.6119 18.6224 57.6869C18.3674 57.7619 18.0839 57.7994 17.7719 57.7994ZM17.8574 57.2999C18.1814 57.2999 18.4739 57.2474 18.7349 57.1424C18.9989 57.0344 19.2089 56.8814 19.3649 56.6834C19.5209 56.4824 19.5989 56.2394 19.5989 55.9544V54.8384L19.7204 55.0454C19.5464 55.1324 19.3094 55.2029 19.0094 55.2569C18.7094 55.3079 18.3839 55.3499 18.0329 55.3829C17.5379 55.4309 17.1614 55.5254 16.9034 55.6664C16.6484 55.8074 16.5209 56.0369 16.5209 56.3549C16.5209 56.6609 16.6334 56.8949 16.8584 57.0569C17.0834 57.2189 17.4164 57.2999 17.8574 57.2999ZM24.5036 57.7139V55.5179C24.5036 55.3289 24.5036 55.1654 24.5036 55.0274C24.5036 54.8864 24.5036 54.7694 24.5036 54.6764C24.5036 54.5594 24.4946 54.4289 24.4766 54.2849C24.4586 54.1379 24.4166 53.9969 24.3506 53.8619C24.2876 53.7269 24.1871 53.6159 24.0491 53.5289C23.9111 53.4389 23.7206 53.3939 23.4776 53.3939C23.2226 53.3939 23.0096 53.4449 22.8386 53.5469C22.6676 53.6459 22.5296 53.7749 22.4246 53.9339C22.3226 54.0929 22.2491 54.2624 22.2041 54.4424C22.1591 54.6224 22.1366 54.7919 22.1366 54.9509L21.8036 54.8204C21.8036 54.4754 21.8756 54.1559 22.0196 53.8619C22.1636 53.5649 22.3676 53.3249 22.6316 53.1419C22.8986 52.9589 23.2151 52.8674 23.5811 52.8674C23.9321 52.8674 24.2156 52.9379 24.4316 53.0789C24.6476 53.2169 24.8051 53.4119 24.9041 53.6639C25.0061 53.9129 25.0571 54.2054 25.0571 54.5414C25.0571 54.6584 25.0571 54.8054 25.0571 54.9824C25.0571 55.1594 25.0571 55.3574 25.0571 55.5764V57.7139H24.5036ZM21.5786 57.7139V52.9349H22.1366V57.7139H21.5786ZM27.4196 57.7139V55.5134C27.4196 55.3034 27.4196 55.1324 27.4196 55.0004C27.4196 54.8654 27.4196 54.7499 27.4196 54.6539C27.4196 54.5399 27.4121 54.4124 27.3971 54.2714C27.3821 54.1274 27.3416 53.9894 27.2756 53.8574C27.2126 53.7254 27.1091 53.6159 26.9651 53.5289C26.8241 53.4389 26.6261 53.3939 26.3711 53.3939C26.1161 53.3939 25.9031 53.4434 25.7321 53.5424C25.5611 53.6414 25.4261 53.7689 25.3271 53.9249C25.2281 54.0779 25.1576 54.2399 25.1156 54.4109C25.0766 54.5789 25.0571 54.7319 25.0571 54.8699L24.7241 54.7484C24.7241 54.4274 24.7931 54.1244 24.9311 53.8394C25.0721 53.5514 25.2731 53.3174 25.5341 53.1374C25.7951 52.9574 26.1101 52.8674 26.4791 52.8674C26.8091 52.8674 27.0836 52.9304 27.3026 53.0564C27.5246 53.1824 27.6911 53.3624 27.8021 53.5964C27.9161 53.8304 27.9731 54.1154 27.9731 54.4514C27.9731 54.5714 27.9731 54.7199 27.9731 54.8969C27.9731 55.0739 27.9731 55.2689 27.9731 55.4819V57.7139H27.4196ZM31.6674 57.7994C31.3014 57.7994 30.9624 57.7109 30.6504 57.5339C30.3384 57.3569 30.0864 57.1169 29.8944 56.8139C29.7054 56.5109 29.6109 56.1704 29.6109 55.7924C29.6109 55.7834 29.6109 55.7759 29.6109 55.7699C29.6109 55.7639 29.6109 55.7579 29.6109 55.7519L30.0249 55.7429C30.0249 55.7489 30.0249 55.7549 30.0249 55.7609C30.0249 55.7669 30.0249 55.7729 30.0249 55.7789C30.0249 56.0489 30.0969 56.2979 30.2409 56.5259C30.3879 56.7539 30.5799 56.9354 30.8169 57.0704C31.0569 57.2054 31.3164 57.2729 31.5954 57.2729C32.0574 57.2729 32.4369 57.1094 32.7339 56.7824C33.0339 56.4524 33.1839 55.9664 33.1839 55.3244C33.1839 54.6794 33.0354 54.1934 32.7384 53.8664C32.4414 53.5394 32.0604 53.3759 31.5954 53.3759C31.3164 53.3759 31.0569 53.4434 30.8169 53.5784C30.5799 53.7134 30.3879 53.8934 30.2409 54.1184C30.0969 54.3434 30.0249 54.5924 30.0249 54.8654L29.6109 54.8519C29.6109 54.4739 29.7054 54.1349 29.8944 53.8349C30.0864 53.5349 30.3384 53.2994 30.6504 53.1284C30.9624 52.9544 31.3014 52.8674 31.6674 52.8674C32.0544 52.8674 32.4054 52.9634 32.7204 53.1554C33.0384 53.3444 33.2904 53.6219 33.4764 53.9879C33.6624 54.3539 33.7554 54.7994 33.7554 55.3244C33.7554 55.8554 33.6624 56.3054 33.4764 56.6744C33.2934 57.0434 33.0444 57.3239 32.7294 57.5159C32.4144 57.7049 32.0604 57.7994 31.6674 57.7994ZM29.4624 57.7139V50.6804H30.0249V57.7139H29.4624Z" fill="#797D86"/>
<path d="M34.5569 17.1075C34.5569 18.1136 34.1573 19.0785 33.4459 19.7898C32.7345 20.5012 31.7697 20.9009 30.7636 20.9009C29.1249 20.9009 27.7289 19.8539 27.213 18.4125C26.5454 19.0042 25.6653 19.3836 24.6942 19.3836C23.8445 19.3836 23.0555 19.0953 22.4182 18.6249C21.7809 19.0953 21.0071 19.3836 20.1422 19.3836C19.1711 19.3836 18.2911 19.0042 17.6234 18.4125C17.1075 19.8539 15.7116 20.9009 14.0728 20.9009C13.0668 20.9009 12.1019 20.5012 11.3905 19.7898C10.6791 19.0785 10.2795 18.1136 10.2795 17.1075C10.2795 15.226 11.6603 13.6632 13.4659 13.3749C13.3749 13.1169 13.3142 12.8438 13.3142 12.5555C13.3142 11.9519 13.554 11.373 13.9808 10.9461C14.4076 10.5193 14.9865 10.2795 15.5902 10.2795C15.8937 10.2795 16.1819 10.3402 16.4399 10.4464C16.6978 9.47532 17.5779 8.76217 18.6249 8.76217C19.0042 8.76217 19.3835 8.86838 19.6567 9.02012C20.1422 8.0035 21.1892 7.24483 22.4182 7.24483C23.6473 7.24483 24.6942 8.0035 25.1798 9.02012C25.4529 8.86838 25.8322 8.76217 26.2116 8.76217C27.2585 8.76217 28.1386 9.47532 28.3965 10.4464C28.6545 10.3402 28.9428 10.2795 29.2463 10.2795C29.8499 10.2795 30.4288 10.5193 30.8556 10.9461C31.2825 11.373 31.5223 11.9519 31.5223 12.5555C31.5223 12.8438 31.4616 13.1169 31.3705 13.3749C33.1762 13.6632 34.5569 15.226 34.5569 17.1075ZM19.3835 22.4182C18.9811 22.4182 18.5952 22.5781 18.3106 22.8627C18.0261 23.1472 17.8662 23.5332 17.8662 23.9356C17.8662 24.338 18.0261 24.7239 18.3106 25.0085C18.5952 25.2931 18.9811 25.4529 19.3835 25.4529C19.786 25.4529 20.1719 25.2931 20.4565 25.0085C20.741 24.7239 20.9009 24.338 20.9009 23.9356C20.9009 23.5332 20.741 23.1472 20.4565 22.8627C20.1719 22.5781 19.786 22.4182 19.3835 22.4182ZM25.4529 22.4182C25.0505 22.4182 24.6645 22.5781 24.38 22.8627C24.0954 23.1472 23.9356 23.5332 23.9356 23.9356C23.9356 24.338 24.0954 24.7239 24.38 25.0085C24.6645 25.2931 25.0505 25.4529 25.4529 25.4529C25.8553 25.4529 26.2413 25.2931 26.5258 25.0085C26.8104 24.7239 26.9702 24.338 26.9702 23.9356C26.9702 23.5332 26.8104 23.1472 26.5258 22.8627C26.2413 22.5781 25.8553 22.4182 25.4529 22.4182ZM34.9059 20.385C33.9348 21.614 32.4478 22.4182 30.7636 22.4182C30.0808 22.4182 29.4283 22.2665 28.8062 22.0086C28.791 25.8778 28.2296 30.5512 26.1357 32.9638C25.3467 33.859 24.3908 34.3445 23.1769 34.4963V31.5223H21.6595V34.4963C20.4457 34.3445 19.4898 33.8742 18.7007 32.9638C16.5916 30.536 16.0302 25.8929 16.015 22.0237C15.4081 22.2665 14.7556 22.4182 14.0728 22.4182C12.3886 22.4182 10.9016 21.614 9.93051 20.385C8.58007 21.7354 7.24481 22.4182 7.24481 22.4182C7.24481 22.4182 8.76215 25.4529 11.7968 25.4529C12.3431 25.4529 12.7679 25.3922 13.1321 25.3164C13.648 31.1126 15.7116 37.5916 22.4182 37.5916C29.1249 37.5916 31.1884 31.1126 31.7043 25.3164C32.0685 25.3922 32.4934 25.4529 33.0396 25.4529C36.0743 25.4529 37.5916 22.4182 37.5916 22.4182C37.5916 22.4182 36.2564 21.7354 34.9059 20.385Z" fill="#FCC436"/>
</svg>
