<svg width="54" height="69" viewBox="0 0 54 69" fill="none" xmlns="http://www.w3.org/2000/svg">
<rect x="4.9056" y="0.905605" width="43.469" height="43.469" rx="21.7345" stroke="#FCC436" stroke-width="1.81121"/>
<path d="M25.7609 12C24.6231 12 23.653 12.5314 22.9076 13.284C22.501 13.127 22.1158 12.913 21.6522 12.913C19.6442 12.913 18 14.5572 18 16.5652C18 17.5032 18.3816 18.3414 18.9701 18.9905C18.9344 19.0904 18.913 19.1974 18.913 19.3043V31.1739C18.913 32.6754 20.1506 33.913 21.6522 33.913H32.6087C34.1102 33.913 35.3478 32.6754 35.3478 31.1739V29.3478H36.2609C37.7624 29.3478 39 28.1102 39 26.6087V22.9565C39 21.455 37.7624 20.2174 36.2609 20.2174H35.3478V19.1332C35.355 19.0654 35.355 19.0012 35.3478 18.9334C35.9042 18.2914 36.2609 17.4747 36.2609 16.5652C36.2609 14.5572 34.6167 12.913 32.6087 12.913C31.9275 12.913 31.3247 13.1556 30.7826 13.4837C30.2405 13.1556 29.6377 12.913 28.9565 12.913C28.7211 12.913 28.5357 12.9844 28.3288 13.0272C27.6191 12.4316 26.7595 12 25.7609 12ZM23.6495 19.5326C24.2736 19.9214 24.9727 20.2174 25.7609 20.2174C25.8572 20.2174 25.9 20.171 25.9891 20.1603C25.9142 20.5134 25.9178 20.9664 25.8179 21.2731C25.6004 21.9436 25.3043 22.5856 25.3043 23.413C25.3043 25.1678 26.7452 26.6087 28.5 26.6087C30.2548 26.6087 31.6957 25.1678 31.6957 23.413C31.6957 22.5856 31.3996 21.94 31.1821 21.2731C31.0644 20.9093 31.0323 20.3957 30.9538 19.9606C31.5387 20.0961 31.8027 20.2174 32.6087 20.2174C32.9226 20.2174 33.2293 20.1496 33.5217 20.0747V20.8451C33.4682 21.0234 33.4682 21.2089 33.5217 21.3872V28.2636C33.4968 28.3849 33.4968 28.5132 33.5217 28.6345V31.1739C33.5217 31.6911 33.1258 32.087 32.6087 32.087H21.6522C21.135 32.087 20.7391 31.6911 20.7391 31.1739V20.0747C21.0316 20.1496 21.3383 20.2174 21.6522 20.2174C22.4047 20.2174 23.0681 19.9249 23.6495 19.5326ZM35.3478 22.0435H36.2609C36.778 22.0435 37.1739 22.4394 37.1739 22.9565V26.6087C37.1739 27.1258 36.778 27.5217 36.2609 27.5217H35.3478V22.0435Z" fill="#FCC436"/>
<path d="M15.3966 57.7994C15.0186 57.7994 14.6721 57.7229 14.3571 57.5699C14.0421 57.4139 13.7676 57.1904 13.5336 56.8994C13.3026 56.6054 13.1226 56.2469 12.9936 55.8239C12.8676 55.4009 12.8046 54.9224 12.8046 54.3884C12.8046 53.8514 12.8676 53.3744 12.9936 52.9574C13.1226 52.5374 13.3026 52.1819 13.5336 51.8909C13.7676 51.5999 14.0421 51.3794 14.3571 51.2294C14.6751 51.0794 15.0216 51.0044 15.3966 51.0044C15.7746 51.0044 16.1211 51.0794 16.4361 51.2294C16.7541 51.3794 17.0286 51.5999 17.2596 51.8909C17.4936 52.1819 17.6736 52.5374 17.7996 52.9574C17.9286 53.3744 17.9931 53.8514 17.9931 54.3884C17.9931 54.9224 17.9286 55.4009 17.7996 55.8239C17.6736 56.2469 17.4936 56.6054 17.2596 56.8994C17.0286 57.1904 16.7541 57.4139 16.4361 57.5699C16.1211 57.7229 15.7746 57.7994 15.3966 57.7994ZM15.3966 57.2954C15.7956 57.2954 16.1466 57.1829 16.4496 56.9579C16.7556 56.7329 16.9941 56.4044 17.1651 55.9724C17.3391 55.5404 17.4261 55.0124 17.4261 54.3884C17.4261 53.7614 17.3391 53.2349 17.1651 52.8089C16.9911 52.3799 16.7511 52.0559 16.4451 51.8369C16.1421 51.6179 15.7926 51.5084 15.3966 51.5084C15.0036 51.5084 14.6541 51.6179 14.3481 51.8369C14.0421 52.0559 13.8021 52.3799 13.6281 52.8089C13.4541 53.2349 13.3671 53.7614 13.3671 54.3884C13.3671 55.0154 13.4541 55.5449 13.6281 55.9769C13.8021 56.4089 14.0421 56.7374 14.3481 56.9624C14.6541 57.1844 15.0036 57.2954 15.3966 57.2954ZM20.9102 57.7859C20.7752 57.7859 20.6432 57.7694 20.5142 57.7364C20.3882 57.7034 20.2742 57.6449 20.1722 57.5609C20.0732 57.4739 19.9952 57.3554 19.9382 57.2054C19.8812 57.0554 19.8527 56.8649 19.8527 56.6339C19.8527 56.5709 19.8527 56.5064 19.8527 56.4404C19.8527 56.3714 19.8527 56.2994 19.8527 56.2244V53.4254H18.7007V52.9349H19.5287C19.6067 52.9349 19.6682 52.9319 19.7132 52.9259C19.7582 52.9199 19.7897 52.9049 19.8077 52.8809C19.8287 52.8569 19.8407 52.8194 19.8437 52.7684C19.8497 52.7174 19.8527 52.6469 19.8527 52.5569V51.3914H20.4107V52.9349H21.9407V53.4254H20.4107V56.0399C20.4107 56.1119 20.4107 56.1809 20.4107 56.2469C20.4107 56.3129 20.4107 56.3744 20.4107 56.4314C20.4107 56.7014 20.4497 56.9129 20.5277 57.0659C20.6087 57.2189 20.7602 57.2954 20.9822 57.2954C21.0662 57.2954 21.1487 57.2879 21.2297 57.2729C21.3107 57.2579 21.3722 57.2414 21.4142 57.2234V57.7094C21.3632 57.7304 21.2927 57.7484 21.2027 57.7634C21.1127 57.7784 21.0152 57.7859 20.9102 57.7859ZM26.4404 57.7139V55.9094C26.4404 55.8194 26.4404 55.7144 26.4404 55.5944C26.4404 55.4744 26.4404 55.3544 26.4404 55.2344C26.4404 55.1114 26.4404 55.0049 26.4404 54.9149C26.4404 54.4259 26.3309 54.0509 26.1119 53.7899C25.8959 53.5259 25.5629 53.3939 25.1129 53.3939C24.8099 53.3939 24.5414 53.4569 24.3074 53.5829C24.0734 53.7089 23.8889 53.8769 23.7539 54.0869C23.6219 54.2939 23.5559 54.5234 23.5559 54.7754L23.1869 54.6674C23.1869 54.3464 23.2724 54.0494 23.4434 53.7764C23.6174 53.5034 23.8559 53.2844 24.1589 53.1194C24.4649 52.9514 24.8144 52.8674 25.2074 52.8674C25.7774 52.8674 26.2169 53.0399 26.5259 53.3849C26.8379 53.7299 26.9939 54.2069 26.9939 54.8159C26.9939 54.9779 26.9939 55.1609 26.9939 55.3649C26.9939 55.5659 26.9939 55.7714 26.9939 55.9814V57.7139H26.4404ZM22.9979 57.7139V50.6804H23.5559V57.7139H22.9979ZM28.5903 55.5584V55.0589H32.4603L32.3523 55.2119C32.3523 55.1939 32.3523 55.1789 32.3523 55.1669C32.3523 55.1519 32.3523 55.1369 32.3523 55.1219C32.3523 54.8129 32.2863 54.5249 32.1543 54.2579C32.0223 53.9909 31.8303 53.7764 31.5783 53.6144C31.3293 53.4524 31.0248 53.3714 30.6648 53.3714C30.2988 53.3714 29.9763 53.4554 29.6973 53.6234C29.4183 53.7884 29.2008 54.0179 29.0448 54.3119C28.8888 54.6029 28.8108 54.9419 28.8108 55.3289C28.8108 55.7189 28.8873 56.0624 29.0403 56.3594C29.1963 56.6534 29.4138 56.8829 29.6928 57.0479C29.9718 57.2099 30.2973 57.2909 30.6693 57.2909C30.9423 57.2909 31.1793 57.2579 31.3803 57.1919C31.5843 57.1229 31.7523 57.0329 31.8843 56.9219C32.0193 56.8109 32.1213 56.6939 32.1903 56.5709C32.2623 56.4449 32.3043 56.3264 32.3163 56.2154H32.8698C32.8578 56.3924 32.8008 56.5739 32.6988 56.7599C32.5998 56.9429 32.4573 57.1139 32.2713 57.2729C32.0883 57.4319 31.8603 57.5609 31.5873 57.6599C31.3173 57.7559 31.0053 57.8039 30.6513 57.8039C30.1893 57.8039 29.7783 57.6989 29.4183 57.4889C29.0613 57.2789 28.7793 56.9894 28.5723 56.6204C28.3683 56.2484 28.2663 55.8209 28.2663 55.3379C28.2663 54.8519 28.3698 54.4244 28.5768 54.0554C28.7838 53.6834 29.0673 53.3924 29.4273 53.1824C29.7873 52.9724 30.1968 52.8674 30.6558 52.8674C31.1238 52.8674 31.5288 52.9739 31.8708 53.1869C32.2128 53.3999 32.4768 53.6894 32.6628 54.0554C32.8488 54.4184 32.9418 54.8264 32.9418 55.2794C32.9418 55.3184 32.9403 55.3679 32.9373 55.4279C32.9373 55.4879 32.9358 55.5314 32.9328 55.5584H28.5903ZM34.2567 57.7139V52.9349H34.8147V54.3434L34.6167 54.2804C34.6347 54.1304 34.6782 53.9744 34.7472 53.8124C34.8192 53.6474 34.9182 53.4929 35.0442 53.3489C35.1702 53.2049 35.3277 53.0894 35.5167 53.0024C35.7087 52.9124 35.9367 52.8674 36.2007 52.8674C36.3927 52.8674 36.5472 52.8839 36.6642 52.9169C36.7812 52.9499 36.8547 52.9754 36.8847 52.9934L36.7317 53.5334C36.7017 53.5124 36.6402 53.4854 36.5472 53.4524C36.4542 53.4194 36.3207 53.4029 36.1467 53.4029C35.8947 53.4029 35.6832 53.4524 35.5122 53.5514C35.3412 53.6474 35.2047 53.7734 35.1027 53.9294C35.0007 54.0854 34.9272 54.2519 34.8822 54.4289C34.8372 54.6029 34.8147 54.7709 34.8147 54.9329V57.7139H34.2567ZM40.692 50.6804L37.7445 58.4114H37.2585L40.206 50.6804H40.692ZM14.8774 64.2479C14.8774 65.1179 14.6824 65.7614 14.2924 66.1784C13.9054 66.5924 13.3639 66.7994 12.6679 66.7994C11.9719 66.7994 11.4289 66.5924 11.0389 66.1784C10.6519 65.7614 10.4584 65.1179 10.4584 64.2479C10.4584 64.1129 10.4584 63.9674 10.4584 63.8114C10.4584 63.6554 10.4584 63.4904 10.4584 63.3164V60.0764H11.0164V63.3434C11.0164 63.5114 11.0164 63.6689 11.0164 63.8159C11.0164 63.9629 11.0164 64.0994 11.0164 64.2254C11.0164 64.9574 11.1574 65.4854 11.4394 65.8094C11.7244 66.1334 12.1339 66.2954 12.6679 66.2954C13.2019 66.2954 13.6114 66.1334 13.8964 65.8094C14.1814 65.4854 14.3239 64.9574 14.3239 64.2254V60.0764H14.8774V64.2479ZM19.7694 66.7139V64.3379C19.7694 64.1909 19.7694 64.0739 19.7694 63.9869C19.7694 63.8999 19.7694 63.8144 19.7694 63.7304C19.7694 63.4634 19.7214 63.2309 19.6254 63.0329C19.5324 62.8319 19.3884 62.6759 19.1934 62.5649C18.9984 62.4509 18.7479 62.3939 18.4419 62.3939C18.1719 62.3939 17.9184 62.4614 17.6814 62.5964C17.4444 62.7284 17.2524 62.9084 17.1054 63.1364C16.9614 63.3644 16.8894 63.6209 16.8894 63.9059L16.5519 63.7799C16.5519 63.4169 16.6449 63.0914 16.8309 62.8034C17.0199 62.5154 17.2659 62.2874 17.5689 62.1194C17.8749 61.9514 18.1989 61.8674 18.5409 61.8674C18.9039 61.8674 19.2189 61.9364 19.4859 62.0744C19.7529 62.2094 19.9584 62.4059 20.1024 62.6639C20.2494 62.9189 20.3229 63.2294 20.3229 63.5954C20.3229 63.7214 20.3229 63.8564 20.3229 64.0004C20.3229 64.1444 20.3229 64.2749 20.3229 64.3919V66.7139H19.7694ZM16.3314 66.7139V61.9349H16.8894V66.7139H16.3314ZM21.807 66.7139V59.6804H22.338V64.0859L22.1805 64.0184L24.66 61.9349H25.3845L23.0625 63.9284L23.1975 63.6314L25.425 66.7139H24.8175L22.824 63.9329L22.968 64.0139L22.248 64.6214L22.338 64.3424V66.7139H21.807ZM29.8944 66.7139V64.3379C29.8944 64.1909 29.8944 64.0739 29.8944 63.9869C29.8944 63.8999 29.8944 63.8144 29.8944 63.7304C29.8944 63.4634 29.8464 63.2309 29.7504 63.0329C29.6574 62.8319 29.5134 62.6759 29.3184 62.5649C29.1234 62.4509 28.8729 62.3939 28.5669 62.3939C28.2969 62.3939 28.0434 62.4614 27.8064 62.5964C27.5694 62.7284 27.3774 62.9084 27.2304 63.1364C27.0864 63.3644 27.0144 63.6209 27.0144 63.9059L26.6769 63.7799C26.6769 63.4169 26.7699 63.0914 26.9559 62.8034C27.1449 62.5154 27.3909 62.2874 27.6939 62.1194C27.9999 61.9514 28.3239 61.8674 28.6659 61.8674C29.0289 61.8674 29.3439 61.9364 29.6109 62.0744C29.8779 62.2094 30.0834 62.4059 30.2274 62.6639C30.3744 62.9189 30.4479 63.2294 30.4479 63.5954C30.4479 63.7214 30.4479 63.8564 30.4479 64.0004C30.4479 64.1444 30.4479 64.2749 30.4479 64.3919V66.7139H29.8944ZM26.4564 66.7139V61.9349H27.0144V66.7139H26.4564ZM34.11 66.7949C33.642 66.7949 33.228 66.6884 32.868 66.4754C32.508 66.2594 32.226 65.9639 32.022 65.5889C31.818 65.2139 31.716 64.7909 31.716 64.3199C31.716 63.8459 31.818 63.4244 32.022 63.0554C32.226 62.6864 32.508 62.3969 32.868 62.1869C33.228 61.9769 33.642 61.8719 34.11 61.8719C34.578 61.8719 34.992 61.9769 35.352 62.1869C35.712 62.3969 35.994 62.6864 36.198 63.0554C36.402 63.4244 36.504 63.8459 36.504 64.3199C36.504 64.7909 36.402 65.2139 36.198 65.5889C35.994 65.9639 35.712 66.2594 35.352 66.4754C34.992 66.6884 34.578 66.7949 34.11 66.7949ZM34.11 66.2864C34.47 66.2864 34.7865 66.2024 35.0595 66.0344C35.3355 65.8664 35.5515 65.6339 35.7075 65.3369C35.8635 65.0399 35.9415 64.7009 35.9415 64.3199C35.9415 63.9359 35.8635 63.5984 35.7075 63.3074C35.5515 63.0164 35.3355 62.7899 35.0595 62.6279C34.7865 62.4629 34.47 62.3804 34.11 62.3804C33.753 62.3804 33.4365 62.4629 33.1605 62.6279C32.8845 62.7899 32.6685 63.0164 32.5125 63.3074C32.3565 63.5984 32.2785 63.9359 32.2785 64.3199C32.2785 64.7009 32.3565 65.0399 32.5125 65.3369C32.6685 65.6339 32.8845 65.8664 33.1605 66.0344C33.4365 66.2024 33.753 66.2864 34.11 66.2864ZM41.4783 66.7139L40.0878 61.9349H40.5918L41.9148 66.4439H41.8113L42.7383 61.9349H43.3188L42.2433 66.7139H41.4783ZM38.3283 66.7139L37.2393 61.9349H37.8198L38.7603 66.4439H38.6568L39.9663 61.9349H40.4703L39.0978 66.7139H38.3283Z" fill="#797D86"/>
</svg>
