<svg width="46" height="60" viewBox="0 0 46 60" fill="none" xmlns="http://www.w3.org/2000/svg">
<rect x="0.905605" y="0.905605" width="43.469" height="43.469" rx="21.7345" stroke="#FCC436" stroke-width="1.81121"/>
<path d="M11.8414 57.7994C11.3884 57.7994 11.0044 57.7274 10.6894 57.5834C10.3774 57.4394 10.1404 57.2234 9.97843 56.9354C9.81643 56.6444 9.73543 56.2829 9.73543 55.8509C9.73543 55.7849 9.73543 55.7309 9.73543 55.6889C9.73543 55.6469 9.73543 55.5929 9.73543 55.5269H10.2934C10.2934 55.5899 10.2934 55.6424 10.2934 55.6844C10.2934 55.7234 10.2934 55.7759 10.2934 55.8419C10.2934 56.3489 10.4239 56.7179 10.6849 56.9489C10.9489 57.1799 11.3299 57.2954 11.8279 57.2954C12.3439 57.2954 12.7324 57.1979 12.9934 57.0029C13.2544 56.8079 13.3849 56.5094 13.3849 56.1074C13.3849 55.8284 13.3159 55.5974 13.1779 55.4144C13.0399 55.2284 12.8464 55.0724 12.5974 54.9464C12.3484 54.8204 12.0574 54.7049 11.7244 54.5999C11.3434 54.4769 11.0074 54.3314 10.7164 54.1634C10.4254 53.9924 10.1974 53.7824 10.0324 53.5334C9.86743 53.2844 9.78493 52.9799 9.78493 52.6199C9.78493 52.2689 9.86743 51.9734 10.0324 51.7334C10.1974 51.4934 10.4299 51.3119 10.7299 51.1889C11.0329 51.0659 11.3869 51.0044 11.7919 51.0044C12.2239 51.0044 12.5959 51.0719 12.9079 51.2069C13.2229 51.3389 13.4644 51.5414 13.6324 51.8144C13.8004 52.0844 13.8844 52.4279 13.8844 52.8449C13.8844 52.9169 13.8844 52.9784 13.8844 53.0294C13.8844 53.0774 13.8844 53.1374 13.8844 53.2094H13.3264C13.3264 53.1434 13.3264 53.0864 13.3264 53.0384C13.3264 52.9904 13.3264 52.9334 13.3264 52.8674C13.3264 52.3814 13.1944 52.0334 12.9304 51.8234C12.6694 51.6134 12.2929 51.5084 11.8009 51.5084C11.3329 51.5084 10.9699 51.5984 10.7119 51.7784C10.4569 51.9584 10.3294 52.2389 10.3294 52.6199C10.3294 52.9019 10.4044 53.1359 10.5544 53.3219C10.7074 53.5079 10.9144 53.6654 11.1754 53.7944C11.4364 53.9234 11.7334 54.0434 12.0664 54.1544C12.4594 54.2834 12.7954 54.4289 13.0744 54.5909C13.3534 54.7499 13.5664 54.9494 13.7134 55.1894C13.8604 55.4264 13.9339 55.7249 13.9339 56.0849C13.9339 56.4449 13.8514 56.7539 13.6864 57.0119C13.5214 57.2669 13.2829 57.4619 12.9709 57.5969C12.6589 57.7319 12.2824 57.7994 11.8414 57.7994ZM18.6163 57.7139V55.9094C18.6163 55.8194 18.6163 55.7144 18.6163 55.5944C18.6163 55.4744 18.6163 55.3544 18.6163 55.2344C18.6163 55.1114 18.6163 55.0049 18.6163 54.9149C18.6163 54.4259 18.5068 54.0509 18.2878 53.7899C18.0718 53.5259 17.7388 53.3939 17.2888 53.3939C16.9858 53.3939 16.7173 53.4569 16.4833 53.5829C16.2493 53.7089 16.0648 53.8769 15.9298 54.0869C15.7978 54.2939 15.7318 54.5234 15.7318 54.7754L15.3628 54.6674C15.3628 54.3464 15.4483 54.0494 15.6193 53.7764C15.7933 53.5034 16.0318 53.2844 16.3348 53.1194C16.6408 52.9514 16.9903 52.8674 17.3833 52.8674C17.9533 52.8674 18.3928 53.0399 18.7018 53.3849C19.0138 53.7299 19.1698 54.2069 19.1698 54.8159C19.1698 54.9779 19.1698 55.1609 19.1698 55.3649C19.1698 55.5659 19.1698 55.7714 19.1698 55.9814V57.7139H18.6163ZM15.1738 57.7139V50.6804H15.7318V57.7139H15.1738ZM22.3007 57.7994C21.9347 57.7994 21.6152 57.7439 21.3422 57.6329C21.0692 57.5219 20.8577 57.3614 20.7077 57.1514C20.5607 56.9384 20.4872 56.6819 20.4872 56.3819C20.4872 56.0789 20.5652 55.8269 20.7212 55.6259C20.8772 55.4219 21.0992 55.2629 21.3872 55.1489C21.6782 55.0349 22.0217 54.9584 22.4177 54.9194C23.0267 54.8564 23.4632 54.7934 23.7272 54.7304C23.9942 54.6644 24.1277 54.5594 24.1277 54.4154C24.1277 54.4064 24.1277 54.3974 24.1277 54.3884C24.1277 54.3764 24.1277 54.3644 24.1277 54.3524C24.1277 54.0434 24.0017 53.8034 23.7497 53.6324C23.4977 53.4614 23.1392 53.3759 22.6742 53.3759C22.1882 53.3759 21.8087 53.4719 21.5357 53.6639C21.2657 53.8559 21.1307 54.1409 21.1307 54.5189H20.5817C20.5817 54.1739 20.6687 53.8784 20.8427 53.6324C21.0167 53.3834 21.2612 53.1944 21.5762 53.0654C21.8912 52.9334 22.2587 52.8674 22.6787 52.8674C23.0567 52.8674 23.3972 52.9259 23.7002 53.0429C24.0032 53.1599 24.2432 53.3309 24.4202 53.5559C24.6002 53.7779 24.6902 54.0524 24.6902 54.3794C24.6902 54.4424 24.6902 54.5054 24.6902 54.5684C24.6902 54.6284 24.6902 54.6899 24.6902 54.7529V56.8679C24.6902 56.9699 24.6947 57.0674 24.7037 57.1604C24.7127 57.2534 24.7262 57.3344 24.7442 57.4034C24.7712 57.4904 24.7997 57.5594 24.8297 57.6104C24.8597 57.6614 24.8837 57.6959 24.9017 57.7139H24.3392C24.3272 57.7019 24.3077 57.6704 24.2807 57.6194C24.2537 57.5654 24.2267 57.5024 24.1997 57.4304C24.1757 57.3554 24.1592 57.2714 24.1502 57.1784C24.1412 57.0854 24.1367 56.9729 24.1367 56.8409L24.2267 56.9084C24.1307 57.0854 23.9912 57.2414 23.8082 57.3764C23.6252 57.5084 23.4062 57.6119 23.1512 57.6869C22.8962 57.7619 22.6127 57.7994 22.3007 57.7994ZM22.3862 57.2999C22.7102 57.2999 23.0027 57.2474 23.2637 57.1424C23.5277 57.0344 23.7377 56.8814 23.8937 56.6834C24.0497 56.4824 24.1277 56.2394 24.1277 55.9544V54.8384L24.2492 55.0454C24.0752 55.1324 23.8382 55.2029 23.5382 55.2569C23.2382 55.3079 22.9127 55.3499 22.5617 55.3829C22.0667 55.4309 21.6902 55.5254 21.4322 55.6664C21.1772 55.8074 21.0497 56.0369 21.0497 56.3549C21.0497 56.6609 21.1622 56.8949 21.3872 57.0569C21.6122 57.2189 21.9452 57.2999 22.3862 57.2999ZM26.1074 57.7139V50.6804H26.6384V55.0859L26.4809 55.0184L28.9604 52.9349H29.6849L27.3629 54.9284L27.4979 54.6314L29.7254 57.7139H29.1179L27.1244 54.9329L27.2684 55.0139L26.5484 55.6214L26.6384 55.3424V57.7139H26.1074ZM30.5924 55.5584V55.0589H34.4624L34.3544 55.2119C34.3544 55.1939 34.3544 55.1789 34.3544 55.1669C34.3544 55.1519 34.3544 55.1369 34.3544 55.1219C34.3544 54.8129 34.2884 54.5249 34.1564 54.2579C34.0244 53.9909 33.8324 53.7764 33.5804 53.6144C33.3314 53.4524 33.0269 53.3714 32.6669 53.3714C32.3009 53.3714 31.9784 53.4554 31.6994 53.6234C31.4204 53.7884 31.2029 54.0179 31.0469 54.3119C30.8909 54.6029 30.8129 54.9419 30.8129 55.3289C30.8129 55.7189 30.8894 56.0624 31.0424 56.3594C31.1984 56.6534 31.4159 56.8829 31.6949 57.0479C31.9739 57.2099 32.2994 57.2909 32.6714 57.2909C32.9444 57.2909 33.1814 57.2579 33.3824 57.1919C33.5864 57.1229 33.7544 57.0329 33.8864 56.9219C34.0214 56.8109 34.1234 56.6939 34.1924 56.5709C34.2644 56.4449 34.3064 56.3264 34.3184 56.2154H34.8719C34.8599 56.3924 34.8029 56.5739 34.7009 56.7599C34.6019 56.9429 34.4594 57.1139 34.2734 57.2729C34.0904 57.4319 33.8624 57.5609 33.5894 57.6599C33.3194 57.7559 33.0074 57.8039 32.6534 57.8039C32.1914 57.8039 31.7804 57.6989 31.4204 57.4889C31.0634 57.2789 30.7814 56.9894 30.5744 56.6204C30.3704 56.2484 30.2684 55.8209 30.2684 55.3379C30.2684 54.8519 30.3719 54.4244 30.5789 54.0554C30.7859 53.6834 31.0694 53.3924 31.4294 53.1824C31.7894 52.9724 32.1989 52.8674 32.6579 52.8674C33.1259 52.8674 33.5309 52.9739 33.8729 53.1869C34.2149 53.3999 34.4789 53.6894 34.6649 54.0554C34.8509 54.4184 34.9439 54.8264 34.9439 55.2794C34.9439 55.3184 34.9424 55.3679 34.9394 55.4279C34.9394 55.4879 34.9379 55.5314 34.9349 55.5584H30.5924Z" fill="#797D86"/>
<path d="M13.9 17.9521H32.455" stroke="#FCC436" stroke-width="2.65071" stroke-linecap="round"/>
<path d="M16.6521 19.3719C16.5973 18.6048 17.205 17.9521 17.9742 17.9521H28.3809C29.15 17.9521 29.7577 18.6048 29.7029 19.3719L28.5669 35.2762C28.5173 35.9698 27.9402 36.5071 27.2449 36.5071H19.1101C18.4148 36.5071 17.8377 35.9698 17.7881 35.2762L16.6521 19.3719Z" stroke="#FCC436" stroke-width="2.65071"/>
<path d="M23.1775 13.9761V11.3254C23.1775 10.5934 23.7709 10 24.5028 10H26.4909" stroke="#FCC436" stroke-width="2.65071" stroke-linecap="round"/>
<path d="M17.0288 15.0835C17.1353 14.4444 17.6883 13.976 18.3362 13.976H28.0188C28.6667 13.976 29.2197 14.4444 29.3262 15.0835L29.8043 17.9521H16.5507L17.0288 15.0835Z" fill="#FCC436" stroke="#FCC436" stroke-width="2.65071"/>
</svg>
